<svg width="1440" height="798" viewBox="0 0 1440 798" fill="none" xmlns="http://www.w3.org/2000/svg">
<g clip-path="url(#clip0_313_9)">
<path d="M1427.11 798H13.0742V765.833H1427.11V798ZM16.706 794.365H1423.48V769.468H16.706V794.365Z" fill="#414042"/>
<path d="M487.748 310.949H4.1766C1.99753 310.949 0.36323 309.132 0.36323 306.951L0.181641 288.777C0.181641 287.687 0.544818 286.597 1.27117 285.87C1.99753 285.143 2.90547 284.779 3.99501 284.779H487.566V310.949H487.748ZM4.1766 288.414C3.99501 288.414 3.99501 288.596 3.99501 288.777L4.1766 306.951C4.1766 307.133 4.35819 307.314 4.35819 307.314H484.116V288.414H4.1766Z" fill="#414042"/>
<path d="M649.725 474.147H3.99496C1.81589 474.147 0 472.33 0 470.149V452.157C0 449.977 1.81589 448.159 3.99496 448.159H642.28C643.914 448.159 645.367 449.068 646.093 450.703L653.538 468.695C654.083 469.967 653.902 471.421 653.175 472.512C652.449 473.602 651.178 474.147 649.725 474.147ZM3.99496 451.612C3.81337 451.612 3.63178 451.794 3.63178 451.976V469.967C3.63178 470.149 3.81337 470.331 3.99496 470.331H649.725C649.907 470.331 650.088 470.149 650.088 470.149C650.088 470.149 650.27 469.967 650.088 469.786L642.643 451.794C642.643 451.612 642.461 451.43 642.28 451.43H3.99496V451.612Z" fill="#414042"/>
<path d="M243.329 769.286H0.363281V622.262H243.329V769.286ZM3.99506 765.651H239.697V625.896H3.99506V765.651Z" fill="#414042"/>
<path d="M241.513 769.286H2.17917C1.08964 769.286 0.363281 768.559 0.363281 767.468V489.231C0.363281 488.141 1.08964 487.414 2.17917 487.414H241.513C242.603 487.414 243.329 488.141 243.329 489.231V767.468C243.329 768.377 242.421 769.286 241.513 769.286ZM3.99506 765.651H239.697V491.049H3.99506V765.651Z" fill="#414042"/>
<path d="M482.663 769.286H239.697V487.414H482.663V769.286ZM243.329 765.651H479.031V491.049H243.329V765.651Z" fill="#414042"/>
<path d="M802.26 147.933H400.403V0H802.26V147.933ZM404.035 144.298H798.628V3.63471H404.035V144.298Z" fill="#414042"/>
<path d="M1200.3 147.933H798.446V0H1200.3V147.933ZM802.078 144.298H1196.67V3.63471H802.078V144.298Z" fill="#414042"/>
<path d="M802.26 147.933H400.403V0H802.26V147.933ZM404.035 144.298H798.628V3.63471H404.035V144.298Z" fill="#414042"/>
<path d="M1200.3 147.933H798.446V0H1200.3V147.933ZM802.078 144.298H1196.67V3.63471H802.078V144.298Z" fill="#414042"/>
<path d="M1037.6 124.125H961.15C960.06 124.125 959.334 123.398 959.334 122.308V116.129H962.966V120.491H1035.78V115.947H1039.41V122.308C1039.41 123.217 1038.69 124.125 1037.6 124.125Z" fill="#414042"/>
<path d="M639.556 124.125H563.107C562.017 124.125 561.291 123.398 561.291 122.308V116.129H564.923V120.491H637.74V115.947H641.372V122.308C641.372 123.217 640.645 124.125 639.556 124.125Z" fill="#414042"/>
<path d="M404.217 147.933H2.36035V0H404.217V147.933ZM5.99213 144.298H400.585V3.63471H5.99213V144.298Z" fill="#414042"/>
<path d="M404.217 147.933H2.36035V0H404.217V147.933ZM5.99213 144.298H400.585V3.63471H5.99213V144.298Z" fill="#414042"/>
<path d="M241.513 124.125H165.064C163.974 124.125 163.248 123.398 163.248 122.308V116.129H166.88V120.491H239.697V115.947H243.329V122.308C243.329 123.217 242.421 124.125 241.513 124.125Z" fill="#414042"/>
<path d="M1440 452.339H1197.03V0H1440V452.339ZM1200.66 448.705H1436.37V3.63471H1200.66V448.705Z" fill="#414042"/>
<path d="M1440 769.831H1197.03V460.518H1440V769.831ZM1200.66 766.197H1436.37V464.152H1200.66V766.197Z" fill="#414042"/>
<path d="M1200.67 474.874H1015.26L1028.88 448.705H1200.67V474.874ZM1021.26 471.24H1197.22V452.339H1031.24L1021.26 471.24Z" fill="#414042"/>
<path d="M13.4374 472.148H9.80566V489.232H13.4374V472.148Z" fill="#414042"/>
<path d="M59.1979 285.143C54.6581 285.143 50.1184 285.143 45.5787 285.143C44.8523 285.143 44.126 285.143 44.126 284.234C43.9444 283.326 44.4892 282.962 45.3971 282.962C47.3946 282.962 49.3921 282.962 51.3895 282.962C55.2029 282.962 57.9267 280.236 57.9267 276.42C57.9267 267.878 57.9267 259.337 57.9267 250.977C57.9267 248.796 57.0188 247.16 55.2029 245.706C52.1159 243.526 48.8473 241.345 46.1235 238.8C39.7678 232.985 37.7704 225.534 38.8599 217.174C39.7678 210.086 42.4917 203.544 45.2155 197.001C45.5787 195.911 46.4866 195.366 47.5762 195.366C55.3845 195.366 63.1928 195.366 70.8195 195.366C71.9091 195.366 72.6354 195.729 73.1802 196.82C75.7225 202.817 78.2647 208.814 79.3542 215.175C80.4438 221.899 80.0806 228.442 76.2672 234.257C73.9066 237.892 70.638 240.8 67.0062 243.162C65.7351 244.071 64.4639 244.979 63.1928 245.706C61.3769 246.797 60.6506 248.432 60.6506 250.432C60.6506 259.155 60.6506 267.878 60.6506 276.42C60.6506 280.054 63.3744 282.78 67.0062 282.78C69.0037 282.78 71.1827 282.78 73.1802 282.78C73.9066 282.78 74.4513 282.962 74.6329 283.871C74.6329 284.78 74.0882 284.961 73.1802 284.961C68.4589 285.143 63.9192 285.143 59.1979 285.143Z" fill="#414042"/>
<path d="M117.67 285.143C113.13 285.143 108.59 285.143 104.05 285.143C103.324 285.143 102.598 285.143 102.598 284.234C102.416 283.326 102.961 282.962 103.869 282.962C105.866 282.962 107.864 282.962 109.861 282.962C113.675 282.962 116.398 280.236 116.398 276.42C116.398 267.878 116.398 259.337 116.398 250.977C116.398 248.796 115.49 247.16 113.675 245.706C110.588 243.526 107.319 241.345 104.595 238.8C98.2395 232.985 96.242 225.534 97.3316 217.174C98.2395 210.086 100.963 203.544 103.687 197.001C104.05 195.911 104.958 195.366 106.048 195.366C113.856 195.366 121.664 195.366 129.291 195.366C130.381 195.366 131.107 195.729 131.652 196.82C134.194 202.817 136.736 208.814 137.826 215.175C138.915 221.899 138.552 228.442 134.739 234.257C132.378 237.892 129.11 240.8 125.478 243.162C124.207 244.071 122.936 244.979 121.664 245.706C119.849 246.797 119.122 248.432 119.122 250.432C119.122 259.155 119.122 267.878 119.122 276.42C119.122 280.054 121.846 282.78 125.478 282.78C127.475 282.78 129.654 282.78 131.652 282.78C132.378 282.78 132.923 282.962 133.105 283.871C133.105 284.78 132.56 284.961 131.652 284.961C126.931 285.143 122.209 285.143 117.67 285.143Z" fill="#414042"/>
<path d="M159.98 522.489H83.5307C82.4412 522.489 81.7148 521.762 81.7148 520.672V514.493H85.3466V518.854H158.164V514.311H161.796V520.672C161.796 521.762 161.069 522.489 159.98 522.489Z" fill="#414042"/>
<path d="M159.98 657.155H83.5307C82.4412 657.155 81.7148 656.428 81.7148 655.338V649.159H85.3466V653.52H158.164V648.977H161.796V655.338C161.796 656.428 161.069 657.155 159.98 657.155Z" fill="#414042"/>
<path d="M399.495 522.489H323.046C321.957 522.489 321.23 521.762 321.23 520.672V514.493H324.862V518.854H397.679V514.311H401.311V520.672C401.311 521.762 400.403 522.489 399.495 522.489Z" fill="#414042"/>
<path d="M1432.56 451.249H1428.92V462.698H1432.56V451.249Z" fill="#414042"/>
<path d="M810.976 505.77H694.759C684.772 505.77 679.143 499.591 679.143 488.323V447.433H682.774V488.323C682.774 497.592 686.588 502.135 694.759 502.135H810.976V505.77Z" fill="#414042"/>
<path d="M977.856 505.77H860.187V502.135H977.856C985.846 502.135 989.841 497.591 989.841 488.323V447.614H993.473V488.323C993.291 499.591 987.844 505.77 977.856 505.77Z" fill="#414042"/>
<path d="M1006.55 448.704H860.55V445.07H1002.92C1002.73 441.253 1002.01 440.526 999.647 440.526H860.368V436.892H999.647C1006.55 436.892 1006.55 442.889 1006.55 446.887V448.704Z" fill="#414042"/>
<path d="M810.613 448.704H668.61V446.887C668.61 442.707 668.61 436.892 675.329 436.892H810.794V440.526H675.329C672.968 440.526 672.424 441.253 672.242 445.07H810.613V448.704Z" fill="#414042"/>
<path d="M971.864 750.385H869.811C865.998 750.385 862.911 747.296 862.911 743.479V640.981C862.911 639.163 861.458 637.709 859.642 637.709H850.381V634.075H859.642C863.455 634.075 866.542 637.164 866.542 640.981V743.298C866.542 745.115 867.995 746.569 869.811 746.569H972.045V750.385H971.864Z" fill="#1C75BC"/>
<path d="M669.337 637.528H584.716C579.995 637.528 576.182 633.711 576.182 628.986V551.385H579.813V628.986C579.813 631.712 581.993 633.893 584.716 633.893H669.337V637.528Z" fill="#1C75BC"/>
<path d="M821.871 546.297H540.408V542.662H821.871C823.505 542.662 824.958 541.208 824.958 539.573V438.891H828.59V539.573C828.408 543.207 825.503 546.297 821.871 546.297Z" fill="#ED1C24"/>
<path d="M823.324 552.839H540.408V549.204H823.324C827.863 549.204 831.495 545.57 831.495 541.026V439.254H835.127V541.026C835.127 547.569 829.861 552.839 823.324 552.839Z" fill="#1C75BC"/>
<path d="M537.504 554.111H511.355C508.631 554.111 506.452 551.93 506.452 549.204V546.297C506.452 543.57 508.631 541.39 511.355 541.39H537.504C538.593 541.39 539.32 542.298 539.32 543.207V552.112C539.32 553.384 538.593 554.111 537.504 554.111ZM511.355 543.389C509.721 543.389 508.268 544.661 508.268 546.478V549.386C508.268 551.022 509.539 552.476 511.355 552.476H537.504V543.57H511.355V543.389Z" fill="white"/>
<path d="M513.352 559.2C507.178 559.2 502.094 554.111 502.094 547.932C502.094 541.753 507.178 536.665 513.352 536.665C517.347 536.665 520.979 538.664 522.976 542.117L521.342 543.025C519.526 540.118 516.621 538.482 513.171 538.482C507.905 538.482 503.728 542.844 503.728 547.932C503.728 553.021 508.086 557.382 513.171 557.382C516.439 557.382 519.526 555.747 521.342 552.839L522.976 553.748C520.979 557.201 517.347 559.2 513.352 559.2Z" fill="white"/>
<path d="M1077.73 747.477H1068.29V746.023H1077.73C1080.27 746.023 1082.27 744.024 1082.27 741.48V549.749C1082.27 547.205 1080.27 545.206 1077.73 545.206H846.931C845.478 545.206 844.207 543.934 844.207 542.48V438.709H845.66V542.48C845.66 543.207 846.205 543.752 846.931 543.752H1077.73C1081 543.752 1083.54 546.296 1083.54 549.568V741.48C1083.72 744.751 1081 747.477 1077.73 747.477Z" fill="#8DC63F"/>
<path d="M1076.28 744.025H1068.29V742.571H1076.28C1077.73 742.571 1079 741.299 1079 739.845V551.385C1079 550.113 1078.09 549.205 1076.82 549.205H846.749C843.662 549.205 841.12 546.66 841.12 543.571V438.891H842.573V543.389C842.573 545.752 844.57 547.751 846.931 547.751H1076.82C1078.82 547.751 1080.45 549.386 1080.45 551.385V740.027C1080.27 742.207 1078.46 744.025 1076.28 744.025Z" fill="#00AEEF"/>
<path d="M1074.64 740.572H1068.11V739.118H1074.64C1075.01 739.118 1075.37 738.754 1075.37 738.391V553.93C1075.37 553.384 1075.01 553.021 1074.46 553.021H847.113C841.846 553.021 837.67 548.841 837.67 543.571V438.891H839.123V543.571C839.123 548.114 842.754 551.749 847.294 551.749H1074.64C1075.91 551.749 1077 552.839 1077 554.111V738.573C1076.82 739.481 1075.91 740.572 1074.64 740.572Z" fill="#F7941D"/>
<path d="M1035.06 645.16H1028.52C1027.61 645.16 1026.88 644.433 1026.88 643.525V629.531C1026.88 628.622 1027.61 627.896 1028.52 627.896H1035.06C1035.96 627.896 1036.69 628.622 1036.69 629.531V643.525C1036.69 644.433 1035.96 645.16 1035.06 645.16ZM1028.52 628.804C1028.16 628.804 1027.79 629.168 1027.79 629.531V643.525C1027.79 643.888 1028.16 644.252 1028.52 644.252H1035.06C1035.42 644.252 1035.78 643.888 1035.78 643.525V629.531C1035.78 629.168 1035.42 628.804 1035.06 628.804H1028.52Z" fill="white"/>
<path d="M1036.15 647.887H1003.1C1001.28 647.887 999.646 646.433 999.646 644.434V628.623C999.646 626.806 1001.1 625.17 1003.1 625.17H1036.15C1037.96 625.17 1039.6 626.624 1039.6 628.623V644.434C1039.41 646.251 1037.96 647.887 1036.15 647.887ZM1003.1 626.624C1002.01 626.624 1001.1 627.532 1001.1 628.623V644.434C1001.1 645.524 1002.01 646.433 1003.1 646.433H1036.15C1037.24 646.433 1038.14 645.524 1038.14 644.434V628.623C1038.14 627.532 1037.24 626.624 1036.15 626.624H1003.1Z" fill="white"/>
<path d="M1039.78 739.299H999.647C996.742 739.299 994.562 736.937 994.562 734.211V622.262C994.562 619.354 996.923 617.173 999.647 617.173H1039.78C1042.68 617.173 1044.86 619.536 1044.86 622.262V734.211C1044.86 736.937 1042.5 739.299 1039.78 739.299ZM999.465 618.445C997.468 618.445 995.652 620.081 995.652 622.262V734.211C995.652 736.21 997.286 738.027 999.465 738.027H1039.6C1041.59 738.027 1043.41 736.392 1043.41 734.211V622.262C1043.41 620.263 1041.78 618.445 1039.6 618.445H999.465Z" fill="white"/>
<path d="M1063.02 765.288H976.404C973.135 765.288 970.411 762.561 970.411 759.29V601.907C970.411 598.636 973.135 595.91 976.404 595.91H1063.02C1066.29 595.91 1069.01 598.636 1069.01 601.907V759.29C1069.01 762.561 1066.29 765.288 1063.02 765.288ZM976.222 597.728C973.861 597.728 972.045 599.545 972.045 601.907V759.29C972.045 761.653 973.861 763.47 976.222 763.47H1062.84C1065.2 763.47 1067.02 761.653 1067.02 759.29V601.907C1067.02 599.545 1065.2 597.728 1062.84 597.728H976.222Z" fill="white"/>
<path d="M846.205 439.618H824.959C824.232 439.618 823.688 439.073 823.688 438.346V435.802C823.688 434.529 824.777 433.439 826.048 433.439H845.115C846.386 433.439 847.476 434.529 847.476 435.802V438.346C847.476 439.073 846.931 439.618 846.205 439.618ZM825.503 437.801H845.66V435.802C845.66 435.438 845.297 435.256 845.115 435.256H826.048C825.685 435.256 825.503 435.62 825.503 435.802V437.801Z" fill="white"/>
<path d="M857.1 422.171C856.918 422.171 856.918 422.171 856.918 422.171L857.1 421.263C857.1 421.263 858.915 421.263 860.368 419.627L861.095 420.172C859.642 421.808 857.826 422.171 857.1 422.171Z" fill="white"/>
<path d="M858.552 406.724H857.281C856.736 406.724 856.373 406.36 856.373 405.815C856.373 405.27 856.736 404.906 857.281 404.906H858.552C859.097 404.906 859.46 405.27 859.46 405.815C859.46 406.36 859.097 406.724 858.552 406.724Z" fill="white"/>
<path d="M860.913 423.625C860.732 423.625 860.55 423.444 860.55 423.262C860.55 423.08 860.55 422.898 860.732 422.717C860.732 422.535 860.732 421.808 860.732 421.444V421.081C860.732 420.172 859.461 415.084 859.097 413.993C858.916 413.448 858.916 411.994 858.734 409.813C858.734 408.36 858.553 406.906 858.553 406.36C858.371 405.452 858.008 405.27 858.008 405.27C857.826 405.088 857.645 404.907 857.826 404.725C858.008 404.543 858.189 404.361 858.371 404.361C858.553 404.361 859.279 404.725 859.642 406.179C859.642 406.724 859.824 408.178 859.824 409.632C859.824 411.267 860.005 413.266 860.187 413.63C860.368 414.357 861.64 419.809 861.821 420.899V421.081C861.458 422.535 861.458 423.262 860.913 423.625Z" fill="white"/>
<path d="M860.732 423.988C860.005 423.988 859.461 423.08 858.916 421.262L860.55 420.717C860.732 421.262 861.095 421.989 861.277 422.353H868.177C868.722 421.989 869.448 418.536 869.448 415.083C869.448 415.083 869.63 409.813 869.085 407.451C868.903 406.905 868.722 406.542 868.359 406.178C867.814 405.815 867.632 405.27 867.632 404.724V379.827C867.632 379.645 867.632 379.645 867.451 379.645H865.998C865.816 379.645 865.816 379.645 865.816 379.827V403.998C865.816 404.906 865.09 405.815 864 405.815H859.279L857.645 406.724L857.1 405.27C856.918 404.906 856.918 404.724 857.1 404.361C857.282 404.179 857.645 403.998 857.826 403.998H864V379.827C864 378.736 864.908 377.828 865.998 377.828H867.451C868.54 377.828 869.448 378.736 869.448 379.827V404.543C870.174 405.088 870.538 405.815 870.901 406.724C871.446 409.268 871.264 414.538 871.264 414.72C871.264 418.173 870.719 423.807 868.177 423.807H861.095C860.913 423.988 860.913 423.988 860.732 423.988Z" fill="white"/>
<path d="M820.419 422.716H819.511C819.511 422.716 819.692 417.264 819.692 413.448C819.692 409.631 819.329 404.906 819.329 404.906H820.237C820.237 404.906 820.6 409.631 820.6 413.63C820.6 417.264 820.419 422.716 820.419 422.716Z" fill="white"/>
<path d="M845.478 435.074H825.685V423.989C825.685 423.807 825.503 423.443 825.14 423.443H806.436C805.165 423.443 804.075 422.353 804.075 421.081V405.997C804.075 404.725 805.165 403.634 806.436 403.634H825.14C825.321 403.634 825.685 403.452 825.685 403.089V394.547C825.685 393.275 826.774 392.185 828.045 392.185H829.679V324.398C829.679 305.679 814.426 290.413 795.722 290.413C777.019 290.413 761.765 305.679 761.765 324.398V331.667C761.765 332.576 761.039 333.303 760.131 333.303H751.778C750.87 333.303 750.144 332.576 750.144 331.667V323.671C750.144 298.591 770.482 278.237 795.541 278.237C820.6 278.237 840.938 298.591 840.938 323.671V392.185H842.936C844.207 392.185 845.296 393.275 845.296 394.547V403.089C845.296 403.271 845.478 403.634 845.841 403.634H855.465C856.918 403.634 858.189 404.906 858.189 406.36V420.536C858.189 421.989 856.918 423.262 855.465 423.262H845.841C845.659 423.262 845.296 423.443 845.296 423.807V435.074H845.478ZM827.5 433.257H843.662V423.989C843.662 422.716 844.751 421.626 846.022 421.626H855.647C856.191 421.626 856.555 421.263 856.555 420.717V406.542C856.555 405.997 856.191 405.633 855.647 405.633H846.022C844.751 405.633 843.662 404.543 843.662 403.271V394.729C843.662 394.366 843.299 394.184 843.117 394.184H840.938C840.03 394.184 839.304 393.457 839.304 392.548V323.852C839.304 299.863 819.874 280.236 795.722 280.236C771.571 280.236 752.141 299.682 752.141 323.852V331.667H760.131V324.579C760.131 304.952 776.111 288.777 795.904 288.777C815.516 288.777 831.677 304.77 831.677 324.579V392.548C831.677 393.457 830.951 394.002 830.224 394.002H828.227C827.864 394.002 827.682 394.366 827.682 394.547V403.089C827.682 404.361 826.592 405.452 825.321 405.452H806.618C806.436 405.452 806.073 405.633 806.073 405.997V421.081C806.073 421.263 806.255 421.626 806.618 421.626H825.321C826.592 421.626 827.682 422.716 827.682 423.989V433.257H827.5Z" fill="white"/>
<path d="M840.394 392.73H830.406V393.639H840.394V392.73Z" fill="white"/>
<path d="M671.334 650.794C670.608 650.794 669.881 650.431 669.337 649.886C668.792 649.341 668.429 648.614 668.429 647.887V629.168C668.429 623.716 672.787 619.354 678.235 619.354H682.956C683.137 619.354 697.301 620.445 709.468 614.811L712.192 613.72C714.189 612.812 716.368 612.812 718.547 613.357C723.269 614.811 734.709 616.992 757.952 616.992H843.299C847.475 616.992 850.926 620.445 850.926 624.625V647.887C850.926 649.522 849.654 650.613 848.202 650.613L671.334 650.794ZM682.956 621.172H678.416C674.058 621.172 670.426 624.806 670.426 629.168V647.887C670.426 648.068 670.608 648.432 670.789 648.614C670.971 648.795 671.153 648.977 671.516 648.977L848.383 648.795C848.928 648.795 849.291 648.432 849.291 647.887V624.625C849.291 621.353 846.749 618.809 843.48 618.809H758.134C734.709 618.809 723.087 616.446 718.184 614.993C716.55 614.447 714.734 614.629 713.1 615.356L710.376 616.446C697.665 622.262 683.501 621.172 682.956 621.172Z" fill="white"/>
<path d="M674.785 621.171H672.969V587.005C672.969 583.007 676.237 579.736 680.232 579.736H839.486C843.481 579.736 846.749 583.007 846.749 587.005V618.445H844.933V587.005C844.933 584.097 842.573 581.553 839.486 581.553H680.232C677.327 581.553 674.785 583.916 674.785 587.005V621.171Z" fill="white"/>
<path d="M715.824 636.982C710.739 636.982 706.562 632.802 706.562 627.714C706.562 622.625 710.739 618.445 715.824 618.445C720.908 618.445 725.085 622.625 725.085 627.714C725.085 632.802 721.09 636.982 715.824 636.982ZM715.824 619.354C711.284 619.354 707.47 623.17 707.47 627.714C707.47 632.257 711.284 636.074 715.824 636.074C720.363 636.074 724.177 632.257 724.177 627.714C724.177 623.17 720.545 619.354 715.824 619.354Z" fill="white"/>
<path d="M833.675 599.363C832.222 599.363 830.951 598.091 830.951 596.637C830.951 595.91 831.314 595.183 831.859 594.638V592.094C831.859 591.003 832.767 590.095 833.857 590.095C834.946 590.095 835.854 591.003 835.854 592.094V594.638C836.399 595.183 836.762 595.91 836.762 596.637C836.58 598.091 835.309 599.363 833.675 599.363ZM833.675 591.185C833.13 591.185 832.585 591.73 832.585 592.276V595.183L832.404 595.365C832.041 595.729 831.678 596.274 831.678 596.819C831.678 597.909 832.585 598.636 833.493 598.636C834.401 598.636 835.309 597.728 835.309 596.819C835.309 596.274 835.128 595.729 834.583 595.365L834.401 595.183V592.276C834.765 591.549 834.22 591.185 833.675 591.185Z" fill="white"/>
<path d="M685.498 599.363C684.046 599.363 682.774 598.091 682.774 596.637C682.774 595.91 683.138 595.183 683.682 594.638V592.094C683.682 591.003 684.59 590.095 685.68 590.095C686.769 590.095 687.677 591.003 687.677 592.094V594.638C688.222 595.183 688.585 595.91 688.585 596.637C688.222 598.091 686.951 599.363 685.498 599.363ZM685.498 591.185C684.953 591.185 684.409 591.73 684.409 592.276V595.183L684.227 595.365C683.864 595.729 683.501 596.274 683.501 596.819C683.501 597.909 684.409 598.636 685.317 598.636C686.406 598.636 687.133 597.728 687.133 596.819C687.133 596.274 686.951 595.729 686.406 595.365L686.225 595.183V592.276C686.406 591.549 686.043 591.185 685.498 591.185Z" fill="white"/>
<path d="M709.468 753.293H682.411C680.413 753.293 678.961 751.658 678.961 749.659L678.053 663.879H714.189L713.281 749.84C712.918 751.658 711.284 753.293 709.468 753.293ZM679.687 665.515L680.595 749.477C680.595 750.567 681.321 751.476 682.229 751.476H709.286C710.194 751.476 710.92 750.567 710.92 749.659L711.828 665.697H679.687V665.515Z" fill="white"/>
<path d="M714.189 665.515H677.326C675.329 665.515 673.694 663.879 673.694 661.88V648.795H717.639V661.88C717.82 664.061 716.186 665.515 714.189 665.515ZM675.692 650.795V662.062C675.692 662.971 676.418 663.879 677.508 663.879H714.37C715.278 663.879 716.186 663.152 716.186 662.062V650.795H675.692Z" fill="white"/>
<path d="M678.961 680.236H678.779L677.327 679.69C676.782 679.327 676.419 678.782 676.237 678.237L675.511 664.606C675.511 664.243 675.692 663.879 676.237 663.879C676.6 663.879 676.963 664.061 676.963 664.606L677.69 678.237C677.69 678.418 677.69 678.6 677.871 678.6L678.235 678.782L678.053 664.97C678.053 664.606 678.416 664.243 678.779 664.243C679.142 664.243 679.506 664.606 679.506 664.97L679.687 679.69C679.687 679.872 679.506 680.054 679.324 680.236C679.143 680.054 678.961 680.236 678.961 680.236Z" fill="white"/>
<path d="M712.736 680.236C712.555 680.236 712.554 680.236 712.373 680.054C712.191 679.872 712.01 679.69 712.01 679.509L712.191 664.788C712.191 664.425 712.373 664.061 712.918 664.061C713.281 664.061 713.644 664.425 713.644 664.788L713.462 678.6L713.826 678.418C714.007 678.418 714.007 678.237 714.007 678.055L714.734 664.425C714.734 664.061 715.097 663.698 715.46 663.698C715.823 663.698 716.186 664.061 716.186 664.425L715.46 678.055C715.46 678.6 715.097 679.327 714.552 679.509L713.099 680.054C712.918 680.054 712.918 680.236 712.736 680.236Z" fill="white"/>
<path d="M702.023 681.507H701.842C701.66 681.507 701.66 681.326 701.66 681.144V664.788C701.66 664.606 701.842 664.424 702.023 664.424H704.747C704.929 664.424 704.929 664.424 705.11 664.606C705.11 664.606 705.292 664.788 705.292 664.97L704.566 679.69C704.566 680.235 704.202 680.78 703.658 681.144L702.205 681.871C702.205 681.507 702.205 681.507 702.023 681.507ZM702.568 665.151V680.417L703.294 680.054C703.476 679.872 703.658 679.69 703.658 679.508L704.384 665.333H702.568V665.151Z" fill="white"/>
<path d="M689.675 681.508H689.493L688.041 680.781C687.496 680.417 687.133 679.872 687.133 679.327L686.406 664.606C686.406 664.425 686.406 664.425 686.588 664.243C686.588 664.243 686.769 664.061 686.951 664.061H689.675C689.856 664.061 690.038 664.243 690.038 664.425V680.781C690.038 680.962 690.038 681.144 689.856 681.144C689.856 681.508 689.675 681.508 689.675 681.508ZM687.496 665.151L688.222 679.327C688.222 679.69 688.404 679.872 688.585 680.054L689.312 680.417V665.151H687.496Z" fill="white"/>
<path d="M751.596 753.293H724.54C722.542 753.293 721.09 751.658 721.09 749.659L720.182 663.879H756.318L755.41 749.84C755.047 751.658 753.594 753.293 751.596 753.293ZM721.816 665.515L722.724 749.477C722.724 750.567 723.45 751.476 724.358 751.476H751.415C752.323 751.476 753.049 750.567 753.049 749.659L753.957 665.697H721.816V665.515Z" fill="white"/>
<path d="M756.499 665.515H719.637C717.639 665.515 716.005 663.879 716.005 661.88V648.795H759.949V661.88C759.949 664.061 758.315 665.515 756.499 665.515ZM717.821 650.795V662.062C717.821 662.971 718.547 663.879 719.637 663.879H756.499C757.407 663.879 758.315 663.152 758.315 662.062V650.795H717.821Z" fill="white"/>
<path d="M721.09 680.236H720.908L719.456 679.69C718.911 679.327 718.548 678.782 718.366 678.237L717.64 664.606C717.64 664.243 717.821 663.879 718.366 663.879C718.729 663.879 719.092 664.061 719.092 664.606L719.819 678.237C719.819 678.418 719.819 678.6 720 678.6L720.363 678.782L720.182 664.97C720.182 664.606 720.545 664.243 720.908 664.243C721.271 664.243 721.635 664.606 721.635 664.97L721.816 679.69C721.816 679.872 721.635 680.054 721.453 680.236C721.271 680.054 721.271 680.236 721.09 680.236Z" fill="white"/>
<path d="M755.047 680.236C754.865 680.236 754.865 680.236 754.684 680.054C754.502 679.872 754.32 679.69 754.32 679.509L754.502 664.788C754.502 664.425 754.865 664.061 755.228 664.061C755.591 664.061 755.955 664.425 755.955 664.788L755.773 678.6L756.136 678.418C756.318 678.418 756.318 678.237 756.318 678.055L757.044 664.425C757.044 664.061 757.407 663.879 757.77 663.698C758.134 663.698 758.497 664.061 758.497 664.425L757.77 678.055C757.77 678.6 757.407 679.327 756.863 679.509L755.41 680.054C755.228 680.054 755.047 680.236 755.047 680.236Z" fill="white"/>
<path d="M744.333 681.507H744.151C743.97 681.507 743.97 681.326 743.97 681.144V664.788C743.97 664.606 744.151 664.424 744.333 664.424H747.057C747.238 664.424 747.238 664.424 747.42 664.606C747.42 664.606 747.602 664.788 747.602 664.97L746.875 679.69C746.875 680.235 746.512 680.78 745.967 681.144L744.514 681.507C744.333 681.507 744.333 681.507 744.333 681.507ZM744.696 665.151V680.417L745.422 680.054C745.604 679.872 745.786 679.69 745.786 679.508L746.512 665.333H744.696V665.151Z" fill="white"/>
<path d="M731.803 681.508H731.621L730.168 680.781C729.624 680.417 729.261 679.872 729.261 679.327L728.534 664.606C728.534 664.425 728.534 664.425 728.716 664.243C728.716 664.243 728.897 664.061 729.079 664.061H731.803C731.984 664.061 732.166 664.243 732.166 664.425V680.781C732.166 680.962 732.166 681.144 731.984 681.144C731.984 681.508 731.803 681.508 731.803 681.508ZM729.624 665.151L730.35 679.327C730.35 679.69 730.532 679.872 730.713 680.054L731.44 680.417V665.151H729.624Z" fill="white"/>
<path d="M793.725 753.293H766.669C764.671 753.293 763.218 751.658 763.218 749.659L762.311 663.879H798.447L797.539 749.84C797.176 751.658 795.723 753.293 793.725 753.293ZM763.945 665.515L764.853 749.477C764.853 750.567 765.579 751.476 766.487 751.476H793.544C794.452 751.476 795.178 750.567 795.178 749.659L796.086 665.697H763.945V665.515Z" fill="white"/>
<path d="M798.628 665.515H761.766C759.768 665.515 758.134 663.879 758.134 661.88V648.795H802.078V661.88C802.26 664.061 800.626 665.515 798.628 665.515ZM760.131 650.795V662.062C760.131 662.971 760.858 663.879 761.947 663.879H798.81C799.718 663.879 800.626 663.152 800.626 662.062V650.795H760.131Z" fill="white"/>
<path d="M763.218 680.236H763.036L761.583 679.69C761.039 679.327 760.676 678.782 760.494 678.237L759.768 664.606C759.768 664.243 759.949 663.879 760.494 663.879C760.857 663.879 761.22 664.061 761.22 664.606L761.947 678.237C761.947 678.418 761.947 678.6 762.128 678.6L762.491 678.782L762.31 664.97C762.31 664.606 762.673 664.243 763.036 664.243C763.399 664.243 763.763 664.606 763.763 664.97L763.944 679.69C763.944 679.872 763.763 680.054 763.581 680.236C763.581 680.054 763.399 680.236 763.218 680.236Z" fill="white"/>
<path d="M797.176 680.236C796.994 680.236 796.994 680.236 796.812 680.054C796.631 679.872 796.449 679.69 796.449 679.509L796.631 664.788C796.631 664.425 796.994 664.061 797.357 664.061C797.72 664.061 798.084 664.425 798.084 664.788L797.902 678.6L798.265 678.418C798.447 678.418 798.447 678.237 798.447 678.055L799.173 664.425C799.173 664.061 799.536 663.879 799.899 663.698C800.263 663.698 800.626 664.061 800.626 664.425L799.899 678.055C799.899 678.6 799.536 679.327 798.991 679.509L797.539 680.054C797.357 680.054 797.357 680.236 797.176 680.236Z" fill="white"/>
<path d="M786.461 681.507H786.279C786.098 681.507 786.098 681.326 786.098 681.144V664.788C786.098 664.606 786.279 664.424 786.461 664.424H789.185C789.366 664.424 789.366 664.424 789.548 664.606C789.548 664.606 789.729 664.788 789.729 664.97L789.003 679.69C789.003 680.235 788.64 680.78 788.095 681.144L786.642 681.871C786.642 681.507 786.461 681.507 786.461 681.507ZM786.824 665.151V680.417L787.55 680.054C787.732 679.872 787.914 679.69 787.914 679.508L788.64 665.333H786.824V665.151Z" fill="white"/>
<path d="M773.932 681.508H773.75L772.297 680.781C771.753 680.417 771.389 679.872 771.389 679.327L770.663 664.606C770.663 664.425 770.663 664.425 770.845 664.243C770.845 664.243 771.026 664.061 771.208 664.061H773.932C774.113 664.061 774.295 664.243 774.295 664.425V680.781C774.295 680.962 774.295 681.144 774.113 681.144C774.113 681.508 774.113 681.508 773.932 681.508ZM771.753 665.151L772.479 679.327C772.479 679.69 772.661 679.872 772.842 680.054L773.569 680.417V665.151H771.753Z" fill="white"/>
<path d="M836.035 753.293H808.978C806.981 753.293 805.528 751.658 805.528 749.659L804.62 663.879H840.756L839.848 749.84C839.485 751.658 837.851 753.293 836.035 753.293ZM806.254 665.515L807.162 749.477C807.162 750.567 807.889 751.476 808.797 751.476H835.853C836.761 751.476 837.488 750.567 837.488 749.659L838.396 665.697H806.254V665.515Z" fill="white"/>
<path d="M840.757 665.515H803.894C801.897 665.515 800.263 663.879 800.263 661.88V648.795H844.389V661.88C844.389 664.061 842.754 665.515 840.757 665.515ZM802.26 650.795V662.062C802.26 662.971 802.986 663.879 804.076 663.879H840.757C841.665 663.879 842.573 663.152 842.573 662.062V650.795H802.26Z" fill="white"/>
<path d="M805.528 680.236H805.347L803.894 679.69C803.349 679.327 802.986 678.782 802.804 678.237L802.078 664.606C802.078 664.243 802.26 663.879 802.804 663.879C803.168 663.879 803.531 664.061 803.531 664.606L804.257 678.237C804.257 678.418 804.257 678.6 804.439 678.6L804.802 678.782L804.62 664.97C804.62 664.606 804.984 664.243 805.347 664.243C805.71 664.243 806.073 664.606 806.073 664.97L806.255 679.69C806.255 679.872 806.073 680.054 805.891 680.236C805.71 680.054 805.528 680.236 805.528 680.236Z" fill="white"/>
<path d="M839.304 680.236C839.122 680.236 839.122 680.236 838.94 680.054C838.759 679.872 838.577 679.69 838.577 679.509L838.759 664.788C838.759 664.425 839.122 664.061 839.485 664.061C839.848 664.061 840.211 664.425 840.211 664.788L840.03 678.6L840.393 678.418C840.575 678.418 840.575 678.237 840.575 678.055L841.301 664.425C841.301 664.061 841.664 663.879 842.027 663.698C842.391 663.698 842.754 664.061 842.754 664.425L842.027 678.055C842.027 678.782 841.664 679.327 841.119 679.509L839.667 680.054C839.485 680.054 839.485 680.236 839.304 680.236Z" fill="white"/>
<path d="M828.591 681.689C828.409 681.689 828.409 681.689 828.227 681.508C828.046 681.326 827.864 681.144 827.864 680.963V664.606C827.864 664.243 828.227 663.879 828.591 663.879H831.314C831.496 663.879 831.678 663.879 831.859 664.061C832.041 664.243 832.041 664.425 832.041 664.606L831.314 679.327C831.314 680.054 830.951 680.599 830.406 680.963L828.954 681.689C828.772 681.689 828.772 681.689 828.591 681.689ZM829.317 665.333V679.872L829.68 679.69C829.862 679.69 829.862 679.509 829.862 679.327L830.406 665.333H829.317Z" fill="white"/>
<path d="M816.242 681.689C816.061 681.689 816.061 681.689 815.879 681.689L814.426 680.963C813.882 680.599 813.518 680.054 813.518 679.327L812.792 664.606C812.792 664.425 812.792 664.243 812.974 664.061C813.155 663.879 813.337 663.879 813.518 663.879H816.242C816.605 663.879 816.969 664.243 816.969 664.606V680.963C816.969 681.144 816.787 681.326 816.605 681.508C816.424 681.689 816.242 681.689 816.242 681.689ZM814.245 665.333L814.789 679.327C814.789 679.509 814.971 679.69 814.971 679.69L815.334 679.872V665.333H814.245Z" fill="white"/>
<path d="M673.4 649.86L671.584 649.882L672.858 756.913L674.674 756.892L673.4 649.86Z" fill="white"/>
<path d="M845.441 650.048L844.188 757.08L846.003 757.101L847.257 650.069L845.441 650.048Z" fill="white"/>
<path d="M780.469 612.993H738.159C737.07 612.993 736.343 612.267 735.98 611.358C735.254 608.814 734.527 603.543 734.527 599.363C734.527 594.82 735.072 589.55 735.435 587.005C735.617 585.915 736.525 585.188 737.614 585.188H780.106V586.097H737.614C737.07 586.097 736.525 586.46 736.343 587.187C735.98 589.55 735.435 594.82 735.435 599.363C735.435 603.362 736.162 608.632 736.706 611.176C736.888 611.721 737.433 612.085 737.978 612.085H780.288V612.993H780.469Z" fill="white"/>
<path d="M791.91 615.538H781.741C780.651 615.538 779.925 614.629 779.925 613.72V584.461C779.925 583.37 780.833 582.644 781.741 582.644H791.91C792.999 582.644 793.726 583.552 793.726 584.461V613.72C793.907 614.811 792.999 615.538 791.91 615.538ZM781.922 583.37C781.378 583.37 781.014 583.734 781.014 584.279V613.539C781.014 614.084 781.378 614.447 781.922 614.447H792.091C792.636 614.447 792.999 614.084 792.999 613.539V584.279C792.999 583.734 792.636 583.37 792.091 583.37H781.922Z" fill="white"/>
<path d="M797.357 611.358H793.362V610.449H797.357C798.084 610.449 798.81 610.267 799.355 609.722L801.171 608.087C801.897 607.541 802.26 606.633 802.26 605.906V592.821C802.26 592.094 802.079 591.549 801.715 591.003L799.718 588.277C799.173 587.55 798.265 587.187 797.357 587.187H793.726V586.278H797.357C798.628 586.278 799.718 586.824 800.444 587.732L802.442 590.458C802.987 591.185 803.168 591.912 803.168 592.821V605.906C803.168 606.996 802.623 608.087 801.897 608.813L800.081 610.449C799.173 610.994 798.265 611.358 797.357 611.358Z" fill="white"/>
<path d="M802.442 590.458H801.534V586.278C801.534 585.188 800.626 584.279 799.536 584.279H793.181V583.371H799.536C801.171 583.371 802.442 584.643 802.442 586.278V590.458Z" fill="white"/>
<path d="M799.536 614.447H793.181V613.539H799.536C800.626 613.539 801.534 612.63 801.534 611.539V607.905H802.442V611.539C802.442 613.175 801.171 614.447 799.536 614.447Z" fill="white"/>
<path d="M847.294 765.651H672.242C670.79 765.651 669.7 764.561 669.7 763.107V759.472C669.7 758.018 670.79 756.928 672.242 756.928H847.294C848.747 756.928 849.836 758.018 849.836 759.472V763.107C849.836 764.379 848.747 765.651 847.294 765.651ZM672.242 758.563C671.879 758.563 671.516 758.927 671.516 759.29V762.925C671.516 763.288 671.879 763.652 672.242 763.652H847.294C847.657 763.652 848.021 763.288 848.021 762.925V759.29C848.021 758.927 847.657 758.563 847.294 758.563H672.242Z" fill="white"/>
<path d="M680.595 749.84H678.779V757.291H680.595V749.84Z" fill="white"/>
<path d="M839.486 749.84H837.67V757.291H839.486V749.84Z" fill="white"/>
<path d="M982.759 597H981.307V764.015H982.759V597Z" fill="white"/>
<path d="M1058.66 597H1057.21V764.015H1058.66V597Z" fill="white"/>
<path d="M1031.79 642.798C1030.34 642.798 1029.06 641.526 1029.06 640.072C1029.06 638.618 1030.34 637.346 1031.79 637.346C1033.24 637.346 1034.51 638.618 1034.51 640.072C1034.51 641.526 1033.24 642.798 1031.79 642.798ZM1031.79 638.436C1030.88 638.436 1029.97 639.163 1029.97 640.253C1029.97 641.344 1030.7 642.071 1031.79 642.071C1032.88 642.071 1033.6 641.344 1033.6 640.253C1033.6 639.163 1032.7 638.436 1031.79 638.436Z" fill="white"/>
</g>
<defs>
<clipPath id="clip0_313_9">
<rect width="1440" height="798" fill="white"/>
</clipPath>
</defs>
</svg>
