<svg width="28" height="16" viewBox="0 0 28 16" fill="none" xmlns="http://www.w3.org/2000/svg">
<path d="M14.0001 15.5C13.8359 15.5001 13.6733 15.4679 13.5217 15.405C13.37 15.3421 13.2323 15.25 13.1163 15.1337L0.616328 2.63371C0.127891 2.14527 0.127891 1.35433 0.616328 0.866206C1.10477 0.378081 1.8957 0.377769 2.38383 0.866206L14.0001 12.4825L25.6163 0.866206C26.1048 0.377769 26.8957 0.377769 27.3838 0.866206C27.872 1.35464 27.8723 2.14558 27.3838 2.63371L14.8838 15.1337C14.7679 15.25 14.6302 15.3421 14.4785 15.405C14.3268 15.4679 14.1642 15.5001 14.0001 15.5Z" fill="white"/>
</svg>
