<svg width="30" height="30" viewBox="0 0 30 30" fill="none" xmlns="http://www.w3.org/2000/svg">
<g clip-path="url(#clip0_213_125)">
<path d="M8.125 30C6.51803 30 4.94714 29.5235 3.611 28.6307C2.27485 27.7379 1.23344 26.469 0.618482 24.9843C0.00352044 23.4997 -0.157382 21.866 0.156123 20.2899C0.469628 18.7138 1.24346 17.2661 2.37976 16.1298C3.51606 14.9935 4.9638 14.2196 6.5399 13.9061C8.11599 13.5926 9.74966 13.7535 11.2343 14.3685C12.719 14.9834 13.9879 16.0248 14.8807 17.361C15.7735 18.6971 16.25 20.268 16.25 21.875C16.25 24.0299 15.394 26.0965 13.8702 27.6202C12.3465 29.144 10.2799 30 8.125 30ZM8.125 15C6.76526 15 5.43605 15.4032 4.30546 16.1586C3.17487 16.9141 2.29368 17.9878 1.77333 19.2441C1.25298 20.5003 1.11683 21.8826 1.3821 23.2162C1.64738 24.5499 2.30216 25.7749 3.26364 26.7364C4.22513 27.6978 5.45014 28.3526 6.78376 28.6179C8.11738 28.8832 9.49971 28.747 10.756 28.2267C12.0122 27.7063 13.0859 26.8251 13.8414 25.6945C14.5968 24.564 15 23.2347 15 21.875C15 20.9722 14.8222 20.0782 14.4767 19.2441C14.1312 18.4099 13.6248 17.652 12.9864 17.0136C12.348 16.3752 11.5901 15.8688 10.756 15.5233C9.92184 15.1778 9.02784 15 8.125 15Z" fill="white"/>
<path d="M8.125 27.5C7.95924 27.5 7.80027 27.4342 7.68306 27.3169C7.56585 27.1997 7.5 27.0408 7.5 26.875C7.5 26.7092 7.56585 26.5503 7.68306 26.4331C7.80027 26.3159 7.95924 26.25 8.125 26.25C9.19603 26.2585 10.233 25.8738 11.0393 25.1688C11.8457 24.4639 12.3654 23.4876 12.5 22.425C12.5199 22.2592 12.6048 22.1082 12.7361 22.005C12.8674 21.9019 13.0342 21.8551 13.2 21.875C13.3658 21.8949 13.5168 21.9798 13.62 22.1111C13.7231 22.2424 13.7699 22.4092 13.75 22.575C13.5785 23.9425 12.911 25.1994 11.8741 26.1073C10.8372 27.0151 9.50313 27.5107 8.125 27.5ZM24.375 21.25C23.2625 21.25 22.1749 20.9201 21.2499 20.302C20.3249 19.6839 19.6039 18.8054 19.1782 17.7776C18.7524 16.7498 18.641 15.6188 18.8581 14.5276C19.0751 13.4365 19.6109 12.4342 20.3975 11.6475C21.1842 10.8609 22.1865 10.3251 23.2776 10.1081C24.3688 9.89104 25.4998 10.0024 26.5276 10.4282C27.5554 10.8539 28.4339 11.5749 29.052 12.4999C29.6701 13.4249 30 14.5125 30 15.625C30 17.1168 29.4074 18.5476 28.3525 19.6025C27.2976 20.6574 25.8668 21.25 24.375 21.25ZM24.375 11.25C23.5097 11.25 22.6638 11.5066 21.9444 11.9873C21.2249 12.4681 20.6642 13.1513 20.333 13.9508C20.0019 14.7502 19.9153 15.6299 20.0841 16.4785C20.2529 17.3272 20.6696 18.1067 21.2814 18.7186C21.8933 19.3305 22.6728 19.7471 23.5215 19.9159C24.3701 20.0847 25.2498 19.9981 26.0492 19.667C26.8487 19.3358 27.5319 18.7751 28.0127 18.0556C28.4934 17.3362 28.75 16.4903 28.75 15.625C28.75 14.4647 28.2891 13.3519 27.4686 12.5314C26.6481 11.7109 25.5353 11.25 24.375 11.25Z" fill="white"/>
<path d="M27.5 16.25C27.3342 16.25 27.1753 16.1842 27.0581 16.0669C26.9409 15.9497 26.875 15.7908 26.875 15.625C26.875 14.962 26.6116 14.3261 26.1428 13.8572C25.6739 13.3884 25.038 13.125 24.375 13.125C24.2092 13.125 24.0503 13.0592 23.9331 12.9419C23.8159 12.8247 23.75 12.6658 23.75 12.5C23.75 12.3342 23.8159 12.1753 23.9331 12.0581C24.0503 11.9409 24.2092 11.875 24.375 11.875C27.825 11.875 29.0063 16.25 27.5 16.25ZM15 8.75C14.1347 8.75 13.2888 8.49341 12.5694 8.01268C11.8499 7.53195 11.2892 6.84867 10.958 6.04924C10.6269 5.24982 10.5403 4.37015 10.7091 3.52148C10.8779 2.67282 11.2946 1.89326 11.9064 1.28141C12.5183 0.669555 13.2978 0.252877 14.1465 0.0840664C14.9951 -0.084744 15.8748 0.00189565 16.6742 0.333029C17.4737 0.664162 18.157 1.22492 18.6377 1.94438C19.1184 2.66385 19.375 3.50971 19.375 4.375C19.375 5.53532 18.9141 6.64812 18.0936 7.46859C17.2731 8.28907 16.1603 8.75 15 8.75ZM15 1.25C14.3819 1.25 13.7777 1.43328 13.2638 1.77666C12.7499 2.12004 12.3494 2.6081 12.1129 3.17912C11.8764 3.75014 11.8145 4.37847 11.935 4.98466C12.0556 5.59085 12.3533 6.14767 12.7903 6.58471C13.2273 7.02175 13.7842 7.31938 14.3903 7.43996C14.9965 7.56053 15.6249 7.49865 16.1959 7.26213C16.7669 7.0256 17.255 6.62506 17.5983 6.11116C17.9417 5.59726 18.125 4.99307 18.125 4.375C18.125 3.5462 17.7958 2.75134 17.2097 2.16529C16.6237 1.57924 15.8288 1.25 15 1.25Z" fill="white"/>
<path d="M13.125 5C11.8125 5 12.6188 1.875 15 1.875C15.1658 1.875 15.3247 1.94085 15.4419 2.05806C15.5592 2.17527 15.625 2.33424 15.625 2.5C15.625 2.66576 15.5592 2.82473 15.4419 2.94194C15.3247 3.05915 15.1658 3.125 15 3.125C14.6685 3.125 14.3505 3.2567 14.1161 3.49112C13.8817 3.72554 13.75 4.04348 13.75 4.375C13.75 4.54076 13.6842 4.69973 13.5669 4.81694C13.4497 4.93415 13.2908 5 13.125 5ZM5 11.25C4.38194 11.25 3.77775 11.0667 3.26384 10.7233C2.74994 10.38 2.3494 9.8919 2.11288 9.32089C1.87635 8.74987 1.81447 8.12153 1.93505 7.51534C2.05563 6.90915 2.35325 6.35233 2.79029 5.91529C3.22733 5.47825 3.78415 5.18062 4.39034 5.06005C4.99654 4.93947 5.62487 5.00135 6.19589 5.23788C6.76691 5.4744 7.25496 5.87494 7.59834 6.38884C7.94172 6.90275 8.125 7.50693 8.125 8.125C8.125 8.9538 7.79576 9.74866 7.20971 10.3347C6.62366 10.9208 5.8288 11.25 5 11.25ZM5 6.25C4.62916 6.25 4.26665 6.35997 3.95831 6.56599C3.64997 6.77202 3.40964 7.06486 3.26773 7.40747C3.12581 7.75008 3.08868 8.12708 3.16103 8.49079C3.23338 8.85451 3.41195 9.1886 3.67418 9.45083C3.9364 9.71305 4.27049 9.89163 4.63421 9.96397C4.99792 10.0363 5.37492 9.99919 5.71753 9.85727C6.06014 9.71536 6.35298 9.47504 6.55901 9.16669C6.76504 8.85835 6.875 8.49584 6.875 8.125C6.875 7.62772 6.67746 7.15081 6.32583 6.79917C5.9742 6.44754 5.49728 6.25 5 6.25Z" fill="white"/>
</g>
<defs>
<clipPath id="clip0_213_125">
<rect width="30" height="30" fill="white"/>
</clipPath>
</defs>
</svg>
