<svg width="30" height="30" viewBox="0 0 30 30" fill="none" xmlns="http://www.w3.org/2000/svg">
<path d="M27.71 21.7663L24.2489 19.739L27.5425 18.7985C27.6825 18.7484 27.7983 18.6469 27.8662 18.5146C27.9342 18.3822 27.9493 18.229 27.9085 18.086C27.8676 17.9429 27.7739 17.8208 27.6463 17.7443C27.5187 17.6678 27.3668 17.6427 27.2214 17.6741L22.8514 18.9216L16.1571 14.9999L22.8514 11.0782L27.2196 12.3257C27.365 12.3571 27.5169 12.332 27.6445 12.2555C27.7721 12.179 27.8659 12.0569 27.9067 11.9138C27.9475 11.7708 27.9325 11.6176 27.8645 11.4852C27.7965 11.3529 27.6808 11.2514 27.5407 11.2013L24.2472 10.2638L27.7083 8.23643C27.7799 8.20046 27.8434 8.15019 27.8948 8.08872C27.9462 8.02725 27.9844 7.95589 28.0071 7.87906C28.0299 7.80222 28.0366 7.72154 28.0269 7.64199C28.0172 7.56245 27.9913 7.48574 27.9508 7.41661C27.9103 7.34747 27.8561 7.28738 27.7914 7.24005C27.7267 7.19271 27.6531 7.15915 27.5749 7.14142C27.4968 7.12369 27.4158 7.12217 27.3371 7.13697C27.2583 7.15177 27.1835 7.18256 27.1171 7.22744L23.6565 9.2542L24.4487 5.91787C24.4721 5.84129 24.4796 5.76072 24.4706 5.68114C24.4617 5.60157 24.4365 5.52467 24.3967 5.4552C24.3568 5.38573 24.3032 5.32516 24.2391 5.27723C24.1749 5.2293 24.1016 5.19503 24.0237 5.17653C23.9458 5.15804 23.8649 5.15571 23.786 5.16969C23.7072 5.18367 23.6321 5.21367 23.5653 5.25783C23.4984 5.30199 23.4414 5.35937 23.3976 5.42643C23.3539 5.4935 23.3243 5.56882 23.3108 5.64775L22.262 10.0681L15.5858 13.9798V6.24131L18.8671 3.10537C18.9691 2.99602 19.0255 2.85179 19.0246 2.70223C19.0238 2.55266 18.9657 2.40909 18.8625 2.30092C18.7592 2.19275 18.6184 2.12818 18.469 2.12044C18.3197 2.1127 18.173 2.16237 18.0591 2.25928L15.5858 4.62354V0.612793C15.5858 0.457393 15.5241 0.308357 15.4142 0.198473C15.3043 0.088588 15.1553 0.0268555 14.9999 0.0268555C14.8445 0.0268555 14.6955 0.088588 14.5856 0.198473C14.4757 0.308357 14.4139 0.457393 14.4139 0.612793V4.62354L11.9389 2.25752C11.8844 2.19939 11.8185 2.15301 11.7454 2.12122C11.6722 2.08944 11.5934 2.07291 11.5136 2.07266C11.4339 2.0724 11.355 2.08843 11.2816 2.11975C11.2083 2.15107 11.1421 2.19703 11.0872 2.25482C11.0322 2.3126 10.9897 2.38099 10.9621 2.45581C10.9345 2.53062 10.9224 2.61028 10.9267 2.6899C10.931 2.76953 10.9514 2.84744 10.9868 2.91888C11.0223 2.99032 11.0719 3.05378 11.1327 3.10537L14.4139 6.24131V13.9798L7.73426 10.0692L6.68543 5.64893C6.67472 5.56767 6.64708 5.48956 6.60429 5.41965C6.5615 5.34974 6.50452 5.28958 6.43704 5.24307C6.36955 5.19656 6.29306 5.16472 6.2125 5.14962C6.13194 5.13451 6.04911 5.13648 5.96935 5.15539C5.8896 5.1743 5.8147 5.20973 5.7495 5.25939C5.68429 5.30905 5.63023 5.37184 5.59081 5.4437C5.55139 5.51556 5.52748 5.59489 5.52063 5.67657C5.51379 5.75825 5.52415 5.84045 5.55106 5.91787L6.34149 9.2501L2.88094 7.22451C2.81456 7.17963 2.73968 7.14884 2.66093 7.13404C2.58218 7.11924 2.50123 7.12076 2.42309 7.13849C2.34494 7.15622 2.27127 7.18979 2.20661 7.23712C2.14196 7.28445 2.0877 7.34454 2.04719 7.41368C2.00668 7.48281 1.98078 7.55952 1.97109 7.63906C1.96141 7.71861 1.96814 7.79929 1.99087 7.87613C2.0136 7.95296 2.05185 8.02432 2.10326 8.08579C2.15466 8.14726 2.21813 8.19753 2.28973 8.2335L5.75086 10.2608L2.45731 11.1983C2.37894 11.2153 2.30487 11.2481 2.2397 11.2948C2.17453 11.3415 2.11963 11.4011 2.07841 11.4698C2.03719 11.5386 2.01052 11.6151 2.00006 11.6946C1.98959 11.7741 1.99555 11.8549 2.01756 11.932C2.03958 12.0091 2.07718 12.0808 2.12805 12.1428C2.17891 12.2048 2.24196 12.2557 2.31328 12.2923C2.38459 12.3289 2.46267 12.3505 2.54268 12.3558C2.62268 12.361 2.70291 12.3498 2.7784 12.3228L7.14832 11.0782L13.8427 14.9999L7.14832 18.9216L2.7784 17.6741C2.63299 17.6427 2.48108 17.6678 2.35349 17.7443C2.22589 17.8208 2.13216 17.9429 2.09132 18.086C2.05047 18.229 2.06556 18.3822 2.13352 18.5146C2.20149 18.6469 2.31725 18.7484 2.45731 18.7985L5.75086 19.739L2.28973 21.7663C2.21813 21.8023 2.15466 21.8525 2.10326 21.914C2.05185 21.9755 2.0136 22.0468 1.99087 22.1237C1.96814 22.2005 1.96141 22.2812 1.97109 22.3607C1.98078 22.4403 2.00668 22.517 2.04719 22.5861C2.0877 22.6553 2.14196 22.7154 2.20661 22.7627C2.27127 22.81 2.34494 22.8436 2.42309 22.8613C2.50123 22.879 2.58218 22.8806 2.66093 22.8658C2.73968 22.851 2.81456 22.8202 2.88094 22.7753L6.34149 20.7485L5.55106 24.0819C5.51584 24.2327 5.54173 24.3913 5.62309 24.5231C5.70444 24.6548 5.83465 24.749 5.98524 24.7851C6.0296 24.7955 6.07502 24.8008 6.12059 24.8009C6.25208 24.8005 6.37963 24.7559 6.48272 24.6743C6.5858 24.5927 6.65844 24.4788 6.68895 24.3509L7.73778 19.9312L14.4175 16.02V23.7585L11.1327 26.8944C11.0714 26.946 11.0213 27.0095 10.9856 27.0812C10.9498 27.1528 10.9291 27.231 10.9248 27.311C10.9204 27.391 10.9325 27.471 10.9602 27.5461C10.988 27.6212 11.0309 27.6898 11.0862 27.7477C11.1415 27.8056 11.2081 27.8515 11.2819 27.8827C11.3557 27.9138 11.4351 27.9295 11.5151 27.9288C11.5952 27.9281 11.6743 27.9109 11.7475 27.8785C11.8207 27.846 11.8864 27.7988 11.9407 27.7399L14.4139 25.3763V29.387C14.4139 29.5424 14.4757 29.6914 14.5856 29.8013C14.6955 29.9112 14.8445 29.9729 14.9999 29.9729C15.1553 29.9729 15.3043 29.9112 15.4142 29.8013C15.5241 29.6914 15.5858 29.5424 15.5858 29.387V25.3763L18.062 27.7429C18.1763 27.8386 18.3228 27.8871 18.4717 27.8786C18.6205 27.8701 18.7605 27.8051 18.8632 27.6969C18.9658 27.5888 19.0234 27.4456 19.0241 27.2965C19.0248 27.1474 18.9687 27.0036 18.8671 26.8944L15.5858 23.7562V16.02L22.2655 19.9312L23.3143 24.3509C23.3448 24.4788 23.4175 24.5927 23.5206 24.6743C23.6237 24.7559 23.7512 24.8005 23.8827 24.8009C23.9283 24.8008 23.9737 24.7955 24.018 24.7851C24.1686 24.749 24.2988 24.6548 24.3802 24.5231C24.4616 24.3913 24.4875 24.2327 24.4522 24.0819L23.6618 20.7497L27.1223 22.7765C27.1887 22.8213 27.2636 22.8521 27.3424 22.8669C27.4211 22.8817 27.5021 22.8802 27.5802 22.8625C27.6583 22.8448 27.732 22.8112 27.7967 22.7639C27.8613 22.7165 27.9156 22.6564 27.9561 22.5873C27.9966 22.5182 28.0225 22.4415 28.0322 22.3619C28.0419 22.2824 28.0352 22.2017 28.0124 22.1248C27.9897 22.048 27.9514 21.9767 27.9 21.9152C27.8486 21.8537 27.7852 21.8034 27.7136 21.7675L27.71 21.7663Z" fill="white"/>
</svg>
