<svg width="30" height="30" viewBox="0 0 30 30" fill="none" xmlns="http://www.w3.org/2000/svg">
<g clip-path="url(#clip0_226_8)">
<path d="M0.682326 6.45975C-0.240946 8.05241 -0.226501 9.98531 0.721153 11.63C1.21501 12.492 1.92663 13.2091 2.78478 13.7096C3.64292 14.2101 4.61749 14.4764 5.61091 14.4819C5.61862 14.4819 5.62615 14.4814 5.63387 14.4814L7.3635 27.3194C7.57344 28.8498 8.87745 29.9925 10.4221 30H16.7223C18.267 29.9925 19.571 28.8496 19.781 27.3191L22.457 7.46234C22.4687 7.37728 22.4617 7.29067 22.4362 7.20865C22.4108 7.12662 22.3677 7.05118 22.3099 6.98765C22.2513 6.92319 22.1794 6.87217 22.0992 6.83807C22.019 6.80398 21.9324 6.78762 21.8453 6.79012H10.6922C10.6499 6.68603 10.5985 6.58581 10.5388 6.49062C10.5292 6.47426 10.5188 6.45062 10.5079 6.43518L6.1135 0.269136C6.05697 0.18783 5.98201 0.121059 5.89473 0.0742815C5.80745 0.0275042 5.71034 0.00204986 5.61134 0L5.61084 0C5.51223 0.00130628 5.41533 0.0259572 5.32807 0.0719332C5.24082 0.117909 5.1657 0.183902 5.10887 0.264506L0.714301 6.40648C0.703005 6.4229 0.692079 6.44265 0.682202 6.45975H0.682326ZM18.5575 27.1542C18.4316 28.0731 17.6494 28.7596 16.7223 28.7654H10.4221C9.49473 28.7596 8.71276 28.0731 8.58696 27.1542L7.16307 16.5873C7.77121 16.6662 8.15529 16.8482 8.58331 17.053C9.19986 17.3478 9.89887 17.6814 11.228 17.6814C12.5573 17.6814 13.2563 17.3467 13.8731 17.0517C14.4434 16.7788 14.936 16.543 15.9852 16.543C17.0345 16.543 17.527 16.7785 18.0975 17.0512C18.5573 17.2714 19.0629 17.5162 19.8415 17.6249L18.5575 27.1542ZM21.1392 8.02469L20.0064 16.4135C19.4239 16.3315 19.0474 16.1446 18.6299 15.9449C18.0133 15.6501 17.3142 15.312 15.9849 15.312C14.6556 15.312 13.9568 15.6443 13.3402 15.9394C12.7697 16.2122 12.2771 16.4467 11.228 16.4467C10.1786 16.4467 9.68646 16.2107 9.11597 15.9382C8.58572 15.6845 7.99399 15.402 6.99356 15.3277L6.86023 14.3383C7.62072 14.1631 8.33694 13.833 8.96417 13.3687C9.59141 12.9043 10.1162 12.3157 10.5058 11.6394C11.1626 10.4962 11.3673 9.19753 11.12 8.02469H21.1392ZM1.73578 7.10383L5.60998 1.69173L9.4856 7.12074C10.1793 8.32951 10.1612 9.74487 9.43523 11.0086C9.05426 11.6872 8.49956 12.2522 7.82808 12.6456C7.15659 13.039 6.39252 13.2465 5.6143 13.247C4.83609 13.2476 4.07175 13.0411 3.39976 12.6486C2.72777 12.2561 2.17235 11.6918 1.79054 11.0137C1.06041 9.7458 1.04084 8.32247 1.73578 7.10383Z" fill="white"/>
<path d="M5.57724 12.1836C7.39008 12.1812 8.85903 10.7123 8.86119 8.89951C8.86119 8.55852 8.58484 8.28223 8.24391 8.28223C7.90292 8.28223 7.62663 8.55852 7.62663 8.89951C7.62515 10.0309 6.70842 10.9474 5.57724 10.9491C5.23632 10.9491 4.95996 11.2254 4.95996 11.5664C4.95996 11.9071 5.23632 12.1836 5.57724 12.1836Z" fill="white"/>
</g>
<defs>
<clipPath id="clip0_226_8">
<rect width="30" height="30" fill="white"/>
</clipPath>
</defs>
</svg>
