<svg width="30" height="30" viewBox="0 0 30 30" fill="none" xmlns="http://www.w3.org/2000/svg">
<path d="M23.9995 2.05101C24.0122 1.75052 23.7644 1.5 23.4546 1.5H6.54543C6.23556 1.5 5.98781 1.75052 6.00046 2.05101L7.02728 26.4687C7.0489 27.0154 7.2882 27.5326 7.69482 27.9115C8.10144 28.2904 8.64365 28.5013 9.20731 28.5H20.7927C21.3563 28.5013 21.8986 28.2904 22.3052 27.9115C22.7118 27.5326 22.9511 27.0154 22.9727 26.4687L23.9995 2.05101ZM22.8864 2.55882L22.6464 8.26699L20.5653 7.86332C18.6903 7.49945 16.7888 7.49818 14.9135 7.85935C14.0913 7.96766 12.2661 8.37102 9.64875 7.86326L7.31763 7.41104L7.11358 2.55882H22.8864ZM21.9513 24.7941H8.04871L7.36345 8.49962L9.43498 8.90144C11.3489 9.27277 13.3195 9.25302 15.107 8.90144C16.847 8.56394 18.6115 8.56399 20.3515 8.90149L22.6013 9.33794L21.9513 24.7941ZM20.7927 27.4412H9.20731C8.92547 27.4418 8.65436 27.3364 8.45105 27.1469C8.24774 26.9575 8.1281 26.6988 8.11732 26.4255L8.09322 25.8529H21.9068L21.8827 26.4255C21.8719 26.6988 21.7523 26.9575 21.549 27.1469C21.3456 27.3363 21.0745 27.4418 20.7927 27.4412Z" fill="white"/>
<path d="M13.6761 14.0758V10.8314C13.6761 10.5328 13.4434 10.2907 13.1565 10.2907H9.51956C9.23266 10.2907 9 10.5328 9 10.8314V14.0758C9 14.3744 9.23266 14.6165 9.51956 14.6165H13.1565C13.4434 14.6165 13.6761 14.3744 13.6761 14.0758ZM12.637 13.5351H10.0391V11.3722H12.637V13.5351ZM17.5413 9.90836L15.337 12.2025C15.1341 12.4137 15.1341 12.756 15.337 12.9672L17.9087 15.6437C18.0061 15.7451 18.1383 15.8021 18.2761 15.8021C18.4139 15.8021 18.546 15.7451 18.6435 15.6437L20.8478 13.3495C21.0507 13.1384 21.0507 12.796 20.8478 12.5848L18.2761 9.90836C18.0732 9.69721 17.7443 9.69721 17.5413 9.90836ZM18.276 14.4965L16.4392 12.5848L17.9087 11.0555L19.7456 12.9671L18.276 14.4965ZM15.1587 15.8563C14.9558 15.6452 14.6269 15.6452 14.4239 15.8563L12.2195 18.1505C12.0166 18.3616 12.0166 18.704 12.2195 18.9152L14.7912 21.5917C14.9942 21.8028 15.323 21.8028 15.526 21.5917L17.7304 19.2975C17.9333 19.0864 17.9333 18.744 17.7304 18.5328L15.1587 15.8563ZM15.1587 20.4445L13.3218 18.5328L14.7913 17.0034L16.6282 18.9151L15.1587 20.4445Z" fill="white"/>
</svg>
