<svg width="30" height="30" viewBox="0 0 30 30" fill="none" xmlns="http://www.w3.org/2000/svg">
<path d="M25.3992 15.2182C25.3234 15.1874 25.2422 15.1719 25.1603 15.1725C25.0784 15.1731 24.9975 15.1898 24.9221 15.2217C24.8466 15.2536 24.7782 15.3 24.7208 15.3583C24.6633 15.4166 24.6179 15.4857 24.5871 15.5616C24.5563 15.6374 24.5408 15.7186 24.5414 15.8005C24.542 15.8824 24.5587 15.9633 24.5906 16.0387C24.6225 16.1141 24.6689 16.1825 24.7272 16.24C24.7855 16.2975 24.8546 16.3429 24.9305 16.3737C27.3586 17.351 28.7508 18.6283 28.7508 19.8823C28.7508 22.3737 23.2266 25.0385 15 25.0385C6.77578 25.0385 1.24922 22.3713 1.24922 19.8823C1.24922 18.5791 2.73281 17.2619 5.32266 16.2729C5.64609 16.151 5.80547 15.7901 5.68125 15.469C5.55703 15.1479 5.19609 14.9862 4.875 15.1104C1.73203 16.3127 0 18.0073 0 19.8846C0 23.4752 6.58828 26.2877 15 26.2877C23.4117 26.2877 30 23.4752 30 19.8846C30 18.0682 28.3664 16.4112 25.3992 15.2182ZM14.2875 12.7783C14.3062 12.7994 14.325 12.8229 14.3461 12.8416C15.1594 13.5705 15.6469 14.7471 15.6469 15.9893C15.6469 17.2901 15.1266 18.4948 14.2523 19.2166C14.1893 19.2687 14.1371 19.3327 14.0989 19.405C14.0606 19.4773 14.037 19.5565 14.0294 19.6379C14.0218 19.7193 14.0303 19.8015 14.0545 19.8796C14.0787 19.9577 14.118 20.0303 14.1703 20.0932C14.2945 20.2432 14.4727 20.3182 14.6508 20.3182C14.7914 20.3182 14.932 20.2713 15.0492 20.1752C16.2047 19.219 16.8961 17.6533 16.8961 15.9869C16.8961 14.4166 16.3031 12.9682 15.2648 11.9932C15.2367 11.9557 15.2039 11.9205 15.1664 11.8901C14.2922 11.1682 13.7719 9.96116 13.7719 8.66272C13.7719 6.90257 14.7258 5.36272 16.0922 4.91741C16.4203 4.81194 16.5984 4.46038 16.493 4.13225C16.4414 3.97491 16.3295 3.8444 16.182 3.76929C16.0344 3.69419 15.8631 3.68059 15.7055 3.73147C13.8328 4.34085 12.5227 6.36585 12.5227 8.66038C12.5227 10.2893 13.1812 11.8174 14.2875 12.7783ZM8.43047 12.7783C8.44922 12.8018 8.46797 12.8229 8.48906 12.844C9.30234 13.5729 9.78984 14.7494 9.78984 15.9916C9.78984 17.2901 9.26953 18.4971 8.39531 19.2213C8.33226 19.2734 8.28011 19.3374 8.24185 19.4097C8.20359 19.482 8.17997 19.5611 8.17235 19.6426C8.16473 19.724 8.17326 19.8061 8.19744 19.8843C8.22163 19.9624 8.26099 20.035 8.31328 20.0979C8.4375 20.2479 8.61563 20.3229 8.79375 20.3229C8.93437 20.3229 9.075 20.276 9.19219 20.1799C10.3477 19.2237 11.0391 17.658 11.0391 15.9916C11.0391 14.419 10.4461 12.9729 9.40781 11.9979C9.37969 11.9604 9.34688 11.9252 9.30938 11.8948C8.43516 11.1729 7.91484 9.96585 7.91484 8.66741C7.91484 6.90725 8.86875 5.36741 10.2328 4.9221C10.5609 4.81663 10.7414 4.46507 10.6336 4.13694C10.5258 3.80882 10.1742 3.63069 9.84609 3.73616C7.97344 4.34553 6.66328 6.37053 6.66328 8.66507C6.66563 10.2893 7.32422 11.8174 8.43047 12.7783ZM19.8891 12.7783C19.9078 12.8018 19.9266 12.8229 19.95 12.844C20.7633 13.5729 21.2508 14.7494 21.2508 15.9916C21.2508 17.2901 20.7305 18.4971 19.8563 19.2213C19.7932 19.2734 19.741 19.3374 19.7028 19.4097C19.6645 19.482 19.6409 19.5611 19.6333 19.6426C19.6257 19.724 19.6342 19.8061 19.6584 19.8843C19.6826 19.9624 19.7219 20.035 19.7742 20.0979C19.8984 20.2479 20.0766 20.3229 20.2547 20.3229C20.3953 20.3229 20.5359 20.276 20.6531 20.1799C21.8086 19.2213 22.5 17.6557 22.5 15.9916C22.5 14.419 21.907 12.9729 20.8687 11.9955C20.8406 11.958 20.8078 11.9229 20.7703 11.8924C19.8961 11.1705 19.3758 9.9635 19.3758 8.66507C19.3758 6.90491 20.3297 5.36507 21.6961 4.91975C22.0242 4.81428 22.2023 4.46272 22.0969 4.1346C22.0453 3.97725 21.9334 3.84675 21.7859 3.77164C21.6383 3.69653 21.467 3.68293 21.3094 3.73382C19.4367 4.34319 18.1266 6.36819 18.1266 8.66272C18.1266 10.2893 18.7852 11.8151 19.8891 12.7783Z" fill="white"/>
</svg>
