<svg width="28" height="28" viewBox="0 0 28 28" fill="none" xmlns="http://www.w3.org/2000/svg">
<path d="M6.5 5.25014C6.66576 5.25014 6.82473 5.18429 6.94194 5.06708C7.05915 4.94987 7.125 4.7909 7.125 4.62514V4.25889C7.125 3.85576 7.28187 3.47701 7.56687 3.19201C7.82399 2.93643 8.02782 2.63234 8.16654 2.2974C8.30526 1.96245 8.37612 1.6033 8.375 1.24076V0.874512C8.375 0.708751 8.30915 0.54978 8.19194 0.43257C8.07473 0.31536 7.91576 0.249512 7.75 0.249512C7.58424 0.249512 7.42527 0.31536 7.30806 0.43257C7.19085 0.54978 7.125 0.708751 7.125 0.874512V1.24076C7.125 1.64389 6.96813 2.02264 6.68313 2.30764C6.42601 2.56322 6.22218 2.8673 6.08346 3.20225C5.94474 3.5372 5.87388 3.89635 5.875 4.25889V4.62514C5.875 4.7909 5.94085 4.94987 6.05806 5.06708C6.17527 5.18429 6.33424 5.25014 6.5 5.25014ZM11.5 5.25014C11.6658 5.25014 11.8247 5.18429 11.9419 5.06708C12.0592 4.94987 12.125 4.7909 12.125 4.62514V4.25889C12.125 3.85576 12.2819 3.47701 12.5669 3.19201C12.824 2.93643 13.0278 2.63234 13.1665 2.2974C13.3053 1.96245 13.3761 1.6033 13.375 1.24076V0.874512C13.375 0.708751 13.3092 0.54978 13.1919 0.43257C13.0747 0.31536 12.9158 0.249512 12.75 0.249512C12.5842 0.249512 12.4253 0.31536 12.3081 0.43257C12.1908 0.54978 12.125 0.708751 12.125 0.874512V1.24076C12.125 1.64389 11.9681 2.02264 11.6831 2.30764C11.426 2.56322 11.2222 2.8673 11.0835 3.20225C10.9447 3.5372 10.8739 3.89635 10.875 4.25889V4.62514C10.875 4.7909 10.9408 4.94987 11.0581 5.06708C11.1753 5.18429 11.3342 5.25014 11.5 5.25014ZM16.5 5.25014C16.6658 5.25014 16.8247 5.18429 16.9419 5.06708C17.0592 4.94987 17.125 4.7909 17.125 4.62514V4.25889C17.125 3.85576 17.2819 3.47701 17.5669 3.19201C17.824 2.93643 18.0278 2.63234 18.1665 2.2974C18.3053 1.96245 18.3761 1.6033 18.375 1.24076V0.874512C18.375 0.708751 18.3092 0.54978 18.1919 0.43257C18.0747 0.31536 17.9158 0.249512 17.75 0.249512C17.5842 0.249512 17.4253 0.31536 17.3081 0.43257C17.1908 0.54978 17.125 0.708751 17.125 0.874512V1.24076C17.125 1.64389 16.9681 2.02264 16.6831 2.30764C16.426 2.56322 16.2222 2.8673 16.0835 3.20225C15.9447 3.5372 15.8739 3.89635 15.875 4.25889V4.62514C15.875 4.7909 15.9408 4.94987 16.0581 5.06708C16.1753 5.18429 16.3342 5.25014 16.5 5.25014ZM21.1875 20.1495C23.6619 19.7058 27.75 17.6989 27.75 14.3126C27.75 12.0726 25.9275 10.2501 23.6875 10.2501C23.3719 10.2501 23.0562 10.2889 22.75 10.3626V9.00014C22.75 7.96639 21.9088 7.12514 20.875 7.12514H3.375C2.34125 7.12514 1.5 7.96639 1.5 9.00014V12.1251C1.49961 15.9918 2.54158 19.787 4.51625 23.1114C4.57125 23.2039 4.63437 23.2901 4.69812 23.3751H1.5C0.810625 23.3751 0.25 23.9358 0.25 24.6251C0.25 26.3483 1.65188 27.7501 3.375 27.7501H20.875C22.5981 27.7501 24 26.3483 24 24.6251C24 23.9358 23.4394 23.3751 22.75 23.3751H19.5519C19.6172 23.2905 19.6779 23.2025 19.7337 23.1114C20.2939 22.163 20.7799 21.1728 21.1875 20.1495ZM23.6875 11.5001C25.2381 11.5001 26.5 12.762 26.5 14.3126C26.5 16.6326 23.7369 18.1801 21.6938 18.7514C22.3902 16.6115 22.7466 14.3755 22.75 12.1251V11.6651C23.0505 11.556 23.3678 11.5001 23.6875 11.5001ZM7.75 12.8764L9 13.7095V16.5001H6.5V13.7095L7.75 12.8764ZM20.875 26.5001H3.375C2.34125 26.5001 1.5 25.6589 1.5 24.6251H22.75C22.75 25.6589 21.9088 26.5001 20.875 26.5001ZM7.19875 23.3751C6.8756 23.3763 6.55765 23.2938 6.27584 23.1357C5.99404 22.9775 5.75797 22.7491 5.59062 22.4726C3.73059 19.3416 2.74927 15.767 2.75 12.1251V9.00014C2.75 8.65576 3.03 8.37514 3.375 8.37514H7.125V11.7908L5.80687 12.6695C5.63546 12.7835 5.4949 12.9381 5.39774 13.1195C5.30057 13.301 5.24982 13.5037 5.25 13.7095V16.5001C5.25 17.1895 5.81063 17.7501 6.5 17.7501H9C9.68937 17.7501 10.25 17.1895 10.25 16.5001V13.7095C10.25 13.2908 10.0419 12.902 9.69312 12.6695L8.375 11.7908V8.37514H20.875C21.22 8.37514 21.5 8.65576 21.5 9.00014V12.1251C21.5 15.7689 20.5181 19.347 18.6594 22.4726C18.4919 22.749 18.2559 22.9773 17.9741 23.1355C17.6923 23.2936 17.3744 23.3762 17.0513 23.3751H7.19875Z" fill="white"/>
</svg>
