<svg width="22" height="16" viewBox="0 0 22 16" fill="none" xmlns="http://www.w3.org/2000/svg">
<path d="M19.4595 0.582031H2.54056C1.40895 0.582031 0.488281 1.5027 0.488281 2.63431V13.3658C0.488281 14.4974 1.40888 15.418 2.54056 15.418H19.4595C20.5911 15.418 21.5118 14.4974 21.5118 13.3658V2.63431C21.5118 1.5027 20.5911 0.582031 19.4595 0.582031ZM18.1876 2.26953L11.0001 7.97729L3.81245 2.26953H18.1876ZM19.4595 13.7305H2.54056C2.44385 13.7304 2.35113 13.6919 2.28275 13.6235C2.21436 13.5551 2.17589 13.4624 2.17578 13.3657V3.12467L10.4753 9.71541C10.629 9.83741 10.8145 9.89844 11 9.89844C11.1855 9.89844 11.3711 9.83748 11.5247 9.71541L19.8243 3.12467V13.3657C19.8242 13.4624 19.7857 13.5551 19.7173 13.6235C19.6489 13.6919 19.5562 13.7304 19.4595 13.7305Z" fill="#EBB86B" fill-opacity="0.5"/>
</svg>
