<svg width="18" height="23" viewBox="0 0 18 23" fill="none" xmlns="http://www.w3.org/2000/svg">
<path d="M8.99998 4.29669C6.44911 4.29669 4.37384 6.37196 4.37384 8.92276C4.37384 11.4736 6.44911 13.5489 8.99998 13.5489C11.5508 13.5489 13.626 11.4736 13.626 8.92276C13.626 6.37196 11.5508 4.29669 8.99998 4.29669ZM8.99998 11.8615C7.37962 11.8615 6.06134 10.5432 6.06134 8.92283C6.06134 7.30248 7.37962 5.98426 8.99998 5.98426C10.6203 5.98426 11.9385 7.30255 11.9385 8.92283C11.9385 10.5432 10.6203 11.8615 8.99998 11.8615ZM8.99998 0.664062C4.44612 0.664062 0.741211 4.3689 0.741211 8.92283C0.741211 11.2354 1.6256 13.837 3.29876 16.4462C4.6688 18.5828 6.55711 20.6828 8.47952 22.2079C8.63309 22.3297 8.8185 22.3906 9.00391 22.3906C9.18933 22.3906 9.37474 22.3297 9.5283 22.2079C13.2515 19.2541 17.2587 13.8368 17.2587 8.92283C17.2587 4.3689 13.5538 0.664062 8.99998 0.664062ZM9.00356 20.4541C5.74317 17.6747 2.42871 13.0505 2.42871 8.92283C2.42871 5.29941 5.37656 2.35156 8.99998 2.35156C12.6234 2.35156 15.5712 5.29941 15.5712 8.92283C15.5712 12.8769 12.3487 17.5957 9.00356 20.4541Z" fill="#EBB86B" fill-opacity="0.5"/>
</svg>
