<svg width="30" height="30" viewBox="0 0 30 30" fill="none" xmlns="http://www.w3.org/2000/svg">
<path d="M0 14.2574C0 7.53642 0 4.17591 2.08795 2.08795C4.17591 0 7.53642 0 14.2574 0H15.4455C22.1666 0 25.5271 0 27.615 2.08795C29.703 4.17591 29.703 7.53642 29.703 14.2574V15.4455C29.703 22.1666 29.703 25.5271 27.615 27.615C25.5271 29.703 22.1666 29.703 15.4455 29.703H14.2574C7.53642 29.703 4.17591 29.703 2.08795 27.615C0 25.5271 0 22.1666 0 15.4455V14.2574Z" fill="#EBB86B"/>
<path d="M14.0782 18.8324C12.6243 18.6807 11.3135 18.321 10.1919 17.4449C10.0521 17.3358 9.90893 17.2301 9.78109 17.1039C9.29018 16.6318 9.24075 16.0914 9.62938 15.5358C9.96177 15.0585 10.5192 14.9307 11.1004 15.2051C11.212 15.2616 11.3192 15.3265 11.4209 15.3994C12.4602 16.1058 13.6854 16.4889 14.942 16.5004C16.1987 16.5119 17.4306 16.1514 18.4828 15.4642C18.6838 15.3012 18.9158 15.1806 19.1646 15.1096C19.396 15.0412 19.6437 15.0526 19.8678 15.142C20.0919 15.2313 20.2795 15.3934 20.4004 15.6022C20.7072 16.1034 20.7038 16.5909 20.3254 16.9795C19.7454 17.5661 19.0444 18.0193 18.2714 18.3074C17.5188 18.5777 16.7356 18.7535 15.9396 18.8307C16.0589 18.9619 16.1101 19.025 16.1919 19.1C17.2709 20.1858 18.355 21.2664 19.4305 22.3539C19.6019 22.5097 19.7181 22.7169 19.7617 22.9443C19.8054 23.1717 19.7741 23.4072 19.6726 23.6153C19.5692 23.8435 19.4009 24.0361 19.1887 24.1692C18.9765 24.3022 18.7298 24.3699 18.4794 24.3636C18.1865 24.3348 17.9154 24.1959 17.7209 23.975C16.9061 23.1551 16.076 22.3505 15.2782 21.5153C15.0464 21.2733 14.9373 21.3193 14.7294 21.5289C13.9095 22.3812 13.076 23.2045 12.239 24.0295C12.0836 24.2018 11.8754 24.3175 11.6471 24.3585C11.4188 24.3995 11.1833 24.3636 10.9777 24.2562C10.7549 24.1522 10.5669 23.986 10.4362 23.7776C10.3056 23.5693 10.2379 23.3277 10.2413 23.0818C10.2659 22.7779 10.4077 22.4955 10.6368 22.2943C11.7072 21.2272 12.7743 20.1596 13.8379 19.0914C13.9095 19.0182 13.9777 18.9414 14.0782 18.8324Z" fill="#212024"/>
<path d="M14.9639 15.1158C14.0239 15.1104 13.1067 14.8258 12.3287 14.2984C11.5506 13.7709 10.9468 13.0242 10.5936 12.1531C10.2405 11.2819 10.1541 10.3255 10.3453 9.4052C10.5365 8.48486 10.9967 7.64203 11.6676 6.98361C12.3385 6.32519 13.1898 5.88085 14.1135 5.70693C15.0373 5.53302 15.9919 5.63736 16.8563 6.00674C17.7207 6.37611 18.4559 6.99388 18.9687 7.78168C19.4815 8.56948 19.7487 9.49183 19.7366 10.4317C19.7195 11.6841 19.2084 12.879 18.3145 13.7563C17.4206 14.6336 16.2163 15.1222 14.9639 15.1158ZM17.3213 10.3653C17.3199 9.90581 17.1823 9.45709 16.9257 9.07592C16.6692 8.69474 16.3053 8.39826 15.8802 8.22399C15.4551 8.04973 14.9878 8.00553 14.5376 8.09699C14.0873 8.18845 13.6743 8.41145 13.3508 8.73777C13.0274 9.06408 12.808 9.47903 12.7206 9.93008C12.6331 10.3811 12.6814 10.848 12.8594 11.2716C13.0374 11.6951 13.3371 12.0564 13.7205 12.3095C14.1039 12.5627 14.5539 12.6964 15.0133 12.6937C15.3179 12.693 15.6194 12.6322 15.9005 12.5147C16.1815 12.3972 16.4366 12.2253 16.651 12.009C16.8655 11.7926 17.0351 11.536 17.1501 11.254C17.2651 10.9719 17.3233 10.6699 17.3213 10.3653Z" fill="#212024"/>
</svg>
