<svg width="22" height="22" viewBox="0 0 22 22" fill="none" xmlns="http://www.w3.org/2000/svg">
<path d="M20.4137 14.2753L17.107 12.3662C16.6007 12.0739 16.0098 11.9964 15.4435 12.1482C14.8771 12.2999 14.4041 12.6624 14.1118 13.1687C13.9422 13.4626 13.6452 13.8322 13.1933 13.9246C12.7811 14.0089 12.4172 13.9271 12.0808 13.6747C10.8381 12.7421 9.2592 11.1632 8.32644 9.92031C8.07402 9.58393 7.99224 9.22 8.07655 8.80797C8.16894 8.35593 8.53857 8.05893 8.83241 7.88933C9.87943 7.28472 10.2394 5.94112 9.63495 4.89409L7.72583 1.58729C7.17901 0.640326 6.04332 0.24313 5.02569 0.642716L4.9861 0.658256C3.4059 1.27862 2.25038 1.75471 1.77254 2.23255C0.904531 3.10063 0.0253431 4.71592 0.766507 7.48194C2.20601 12.8545 9.14663 19.7951 14.5191 21.2346C15.2486 21.4301 15.898 21.5129 16.4749 21.5129C18.0852 21.5129 19.1295 20.8678 19.7687 20.2286C20.2464 19.7508 20.7224 18.5955 21.3427 17.0158L21.3585 16.9755C21.758 15.9578 21.3607 14.8221 20.4137 14.2753ZM19.7875 16.3588L19.7717 16.399C19.4724 17.1612 18.8498 18.7472 18.5752 19.0353C17.7698 19.8408 16.552 20.0323 14.9557 19.6047C10.1419 18.3148 3.68609 11.859 2.39628 7.04516C1.96857 5.449 2.1601 4.23119 2.96476 3.4266C3.25381 3.15111 4.8402 2.52836 5.60253 2.22911L5.64219 2.2135C5.70285 2.18939 5.76752 2.17693 5.8328 2.17679C6.00711 2.17679 6.17016 2.26834 6.26417 2.43111L8.1733 5.73784C8.31252 5.97908 8.22962 6.2886 7.98845 6.42782C7.1492 6.91234 6.5933 7.63754 6.42308 8.46983C6.24167 9.35704 6.43306 10.2088 6.97658 10.9332C8.0094 12.3094 9.69177 13.9918 11.0679 15.0244C11.7921 15.5679 12.6439 15.7593 13.5312 15.5779C14.3635 15.4076 15.0887 14.8517 15.5732 14.0124C15.6063 13.955 15.6505 13.9047 15.7032 13.8645C15.7559 13.8243 15.8161 13.795 15.8802 13.7781C15.9441 13.7607 16.0109 13.756 16.0767 13.7645C16.1424 13.773 16.2058 13.7944 16.2632 13.8276L19.5699 15.7367C19.7916 15.8648 19.8811 16.1206 19.7875 16.3588Z" fill="#EBB86B" fill-opacity="0.5"/>
</svg>
