<svg width="30" height="30" viewBox="0 0 30 30" fill="none" xmlns="http://www.w3.org/2000/svg">
<mask id="mask0_206_367" style="mask-type:luminance" maskUnits="userSpaceOnUse" x="0" y="0" width="30" height="30">
<path d="M29.8514 0H0.148438V30H29.8514V0Z" fill="white"/>
</mask>
<g mask="url(#mask0_206_367)">
<path d="M0.148438 14.4C0.148438 7.61178 0.148438 4.21767 2.23639 2.10883C4.32435 0 7.68485 0 14.4059 0H15.594C22.315 0 25.6755 0 27.7635 2.10883C29.8514 4.21767 29.8514 7.61178 29.8514 14.4V15.6C29.8514 22.3882 29.8514 25.7823 27.7635 27.8912C25.6755 30 22.315 30 15.594 30H14.4059C7.68485 30 4.32435 30 2.23639 27.8912C0.148438 25.7823 0.148438 22.3882 0.148438 15.6V14.4Z" fill="#EBB86B"/>
<path d="M15.9522 21.6125C9.18241 21.6125 5.32106 16.925 5.16016 9.125H8.55126C8.66264 14.85 11.1626 17.275 13.1428 17.775V9.125H16.336V14.0625C18.2914 13.85 20.3456 11.6 21.0387 9.125H24.2318C23.6997 12.175 21.4719 14.425 19.8878 15.35C21.4719 16.1 24.0092 18.0625 24.9745 21.6125H21.4596C20.7046 19.2375 18.8236 17.4 16.336 17.15V21.6125H15.9522Z" fill="#212024"/>
</g>
</svg>
