<svg width="30" height="30" viewBox="0 0 30 30" fill="none" xmlns="http://www.w3.org/2000/svg">
<g clip-path="url(#clip0_206_381)">
<path d="M0 14.2574C0 7.53642 0 4.17591 2.08795 2.08795C4.17591 0 7.53642 0 14.2574 0H15.4455C22.1666 0 25.5271 0 27.615 2.08795C29.703 4.17591 29.703 7.53642 29.703 14.2574V15.4455C29.703 22.1666 29.703 25.5271 27.615 27.615C25.5271 29.703 22.1666 29.703 15.4455 29.703H14.2574C7.53642 29.703 4.17591 29.703 2.08795 27.615C0 25.5271 0 22.1666 0 15.4455V14.2574Z" fill="#EBB86B"/>
<path d="M11.25 18.75L20 14.375L11.25 10V18.75Z" fill="#212024"/>
</g>
<defs>
<clipPath id="clip0_206_381">
<rect width="30" height="30" fill="white"/>
</clipPath>
</defs>
</svg>
