<svg width="22" height="22" viewBox="0 0 22 22" fill="none" xmlns="http://www.w3.org/2000/svg">
<path d="M20.4137 14.2743L17.107 12.3652C16.6007 12.0729 16.0098 11.9955 15.4435 12.1472C14.8771 12.2989 14.4041 12.6614 14.1118 13.1678C13.9422 13.4616 13.6452 13.8312 13.1933 13.9236C12.7811 14.0079 12.4172 13.9262 12.0808 13.6737C10.8381 12.7411 9.2592 11.1622 8.32644 9.91933C8.07402 9.58296 7.99224 9.21902 8.07655 8.80699C8.16894 8.35495 8.53857 8.05795 8.83241 7.88836C9.87943 7.28374 10.2394 5.94014 9.63495 4.89312L7.72583 1.58632C7.17901 0.639349 6.04332 0.242154 5.02569 0.64174L4.9861 0.657279C3.4059 1.27765 2.25038 1.75373 1.77254 2.23158C0.904531 3.09965 0.0253431 4.71494 0.766507 7.48097C2.20601 12.8535 9.14663 19.7941 14.5191 21.2337C15.2486 21.4291 15.898 21.5119 16.4749 21.5119C18.0852 21.5119 19.1295 20.8668 19.7687 20.2276C20.2464 19.7499 20.7224 18.5946 21.3427 17.0148L21.3585 16.9746C21.758 15.9568 21.3607 14.8212 20.4137 14.2743ZM19.7875 16.3578L19.7717 16.3981C19.4724 17.1603 18.8498 18.7462 18.5752 19.0344C17.7698 19.8399 16.552 20.0313 14.9557 19.6037C10.1419 18.3138 3.68609 11.858 2.39628 7.04418C1.96857 5.44802 2.1601 4.23021 2.96476 3.42562C3.25381 3.15014 4.8402 2.52738 5.60253 2.22813L5.64219 2.21252C5.70285 2.18841 5.76752 2.17596 5.8328 2.17582C6.00711 2.17582 6.17016 2.26736 6.26417 2.43014L8.1733 5.73687C8.31252 5.97811 8.22962 6.28762 7.98845 6.42684C7.1492 6.91136 6.5933 7.63657 6.42308 8.46886C6.24167 9.35606 6.43306 10.2078 6.97658 10.9322C8.0094 12.3084 9.69177 13.9908 11.0679 15.0234C11.7921 15.5669 12.6439 15.7583 13.5312 15.5769C14.3635 15.4067 15.0887 14.8507 15.5732 14.0114C15.6063 13.954 15.6505 13.9038 15.7032 13.8636C15.7559 13.8233 15.8161 13.794 15.8802 13.7772C15.9441 13.7597 16.0109 13.7551 16.0767 13.7635C16.1424 13.772 16.2058 13.7935 16.2632 13.8266L19.5699 15.7357C19.7916 15.8638 19.8811 16.1196 19.7875 16.3578Z" fill="white"/>
</svg>
