<svg width="22" height="22" viewBox="0 0 22 22" fill="none" xmlns="http://www.w3.org/2000/svg">
<path d="M18.2822 12.3953C17.067 11.2296 15.616 10.3879 14.0416 9.91409C15.3511 8.96776 16.2055 7.42911 16.2055 5.69366C16.2055 2.82343 13.8704 0.488281 11.0001 0.488281C8.1299 0.488281 5.79475 2.82336 5.79475 5.69366C5.79475 7.42904 6.64919 8.96769 7.95855 9.91402C6.38411 10.3879 4.93307 11.2296 3.71786 12.3953C1.75593 14.2772 0.609273 16.8062 0.489109 19.5165C0.480442 19.712 0.54003 19.9045 0.657669 20.0609C0.775308 20.2174 0.943679 20.328 1.13395 20.374C4.25941 21.1289 7.57879 21.5117 11.0001 21.5117C14.4213 21.5117 17.7406 21.1289 20.8661 20.374C21.0563 20.328 21.2247 20.2173 21.3423 20.0609C21.46 19.9045 21.5196 19.712 21.5109 19.5165C21.3908 16.8062 20.2441 14.2771 18.2822 12.3953ZM11.0002 2.17578C12.94 2.17578 14.5181 3.75387 14.5181 5.69366C14.5181 7.63344 12.94 9.21153 11.0002 9.21153C9.06042 9.21153 7.48232 7.63344 7.48232 5.69366C7.48232 3.75387 9.06042 2.17578 11.0002 2.17578ZM11.0001 19.8242C7.96797 19.8242 5.0223 19.5122 2.23286 18.8961C2.7711 14.503 6.49612 11.1553 11.0001 11.1553C15.504 11.1553 19.229 14.5029 19.7672 18.8961C16.9777 19.5122 14.0321 19.8242 11.0001 19.8242Z" fill="white"/>
</svg>
