<svg width="180" height="58" viewBox="0 0 180 58" fill="none" xmlns="http://www.w3.org/2000/svg">
<path d="M69.9 46.9347C65.4756 46.9347 61.0512 45.2639 57.6878 41.917C50.9504 35.2233 50.9504 24.3394 57.6878 17.6456L69.9 5.51257L82.1122 17.6456C88.8496 24.3394 88.8496 35.2233 82.1122 41.917C78.7435 45.2639 74.3191 46.9347 69.9 46.9347ZM69.9 12.18L61.0406 20.9819C56.1547 25.8362 56.1547 33.7317 61.0406 38.5807C65.9265 43.4349 73.8735 43.4349 78.7541 38.5807C83.6401 33.7264 83.6401 25.8309 78.7541 20.9819L69.8947 12.18H69.9Z" fill="white"/>
<path d="M141.221 28.9248C140.611 20.1334 133.216 13.1603 124.213 13.1603C115.211 13.1603 107.163 20.7606 107.163 30.1002C107.163 39.4398 114.813 47.0401 124.213 47.0401C129.046 47.0401 133.412 45.0267 136.521 41.8063V45.5854H141.221V28.9195V28.9248ZM124.213 42.3281C117.428 42.3281 111.906 36.8413 111.906 30.1002C111.906 23.359 117.428 17.8722 124.213 17.8722C130.999 17.8722 136.521 23.359 136.521 30.1002C136.521 36.8413 130.999 42.3281 124.213 42.3281Z" fill="white"/>
<path d="M163.115 12.2537C153.715 12.2537 146.06 19.854 146.06 29.1936V57.9029H150.808V40.905C153.911 44.1254 158.282 46.1388 163.115 46.1388C172.516 46.1388 180.166 38.5385 180.166 29.1989C180.166 19.8593 172.516 12.259 163.115 12.259V12.2537ZM163.115 41.4215C156.33 41.4215 150.808 35.9348 150.808 29.1936C150.808 22.4524 156.33 16.9657 163.115 16.9657C169.9 16.9657 175.423 22.4524 175.423 29.1936C175.423 35.9348 169.9 41.4215 163.115 41.4215Z" fill="white"/>
<path d="M20.8019 45.5748H-0.168945V0.120667H20.8019V4.8379H4.57906V40.8576H20.8019V45.5748ZM16.8178 12.6332H8.23424V17.3504H16.8178V12.6332Z" fill="white"/>
<path d="M107.634 42.328V47.0453C98.2604 47.0453 90.6317 39.4924 90.584 30.195V0.336731H95.332V30.1001C95.332 36.8413 100.855 42.328 107.64 42.328H107.634ZM107.252 12.6121H98.8811V17.3293H107.252V12.6121Z" fill="white"/>
<path d="M42.2764 27.1592C46.9607 24.4026 50.2393 19.4798 50.6318 13.7506C50.6584 13.3659 50.6743 12.9706 50.6743 12.5753H45.9263C45.9263 12.8599 45.9157 13.1445 45.8997 13.4238C45.4594 19.8013 40.0695 24.7979 33.6239 24.7979H29.1836V0.336792H24.4355V45.5906H29.1836V29.5204H33.6239C40.409 29.5204 45.9316 35.0072 45.9316 41.7483V45.5906H50.6796V41.7483C50.6796 35.5448 47.3056 30.1107 42.2817 27.1592H42.2764Z" fill="white"/>
</svg>
