<svg width="38" height="27" viewBox="0 0 38 27" fill="none" xmlns="http://www.w3.org/2000/svg">
<path d="M36.8125 2.5H1.1875C0.872555 2.5 0.57051 2.37489 0.347811 2.15219C0.125111 1.92949 0 1.62744 0 1.3125C0 0.997555 0.125111 0.69551 0.347811 0.472811C0.57051 0.250111 0.872555 0.125 1.1875 0.125H36.8125C37.1274 0.125 37.4295 0.250111 37.6522 0.472811C37.8749 0.69551 38 0.997555 38 1.3125C38 1.62744 37.8749 1.92949 37.6522 2.15219C37.4295 2.37489 37.1274 2.5 36.8125 2.5ZM36.8125 14.375H1.1875C0.872555 14.375 0.57051 14.2499 0.347811 14.0272C0.125111 13.8045 0 13.5024 0 13.1875C0 12.8726 0.125111 12.5705 0.347811 12.3478C0.57051 12.1251 0.872555 12 1.1875 12H36.8125C37.1274 12 37.4295 12.1251 37.6522 12.3478C37.8749 12.5705 38 12.8726 38 13.1875C38 13.5024 37.8749 13.8045 37.6522 14.0272C37.4295 14.2499 37.1274 14.375 36.8125 14.375ZM36.8125 26.25H1.1875C0.872555 26.25 0.57051 26.1249 0.347811 25.9022C0.125111 25.6795 0 25.3774 0 25.0625C0 24.7476 0.125111 24.4455 0.347811 24.2228C0.57051 24.0001 0.872555 23.875 1.1875 23.875H36.8125C37.1274 23.875 37.4295 24.0001 37.6522 24.2228C37.8749 24.4455 38 24.7476 38 25.0625C38 25.3774 37.8749 25.6795 37.6522 25.9022C37.4295 26.1249 37.1274 26.25 36.8125 26.25Z" fill="#EBB86B"/>
</svg>
